<?xml version="1.0" encoding="UTF-8"?>
<svg id="_레이어_1" data-name="레이어 1" xmlns="http://www.w3.org/2000/svg" viewBox="0 0 983.95 823.45">
  <defs>
    <style>
      .cls-1 {
        fill: #231815;
      }

      .cls-2 {
        fill: #315dff;
      }

      .cls-3 {
        fill: #8cc63f;
      }

      .cls-4 {
        fill: none;
        stroke: #000;
        stroke-miterlimit: 10;
        stroke-width: .75px;
      }

      .cls-5 {
        fill: #fff;
      }

      .cls-6 {
        fill: red;
      }

      .cls-7 {
        fill: #060056;
      }

      .cls-8 {
        fill: #662d91;
      }

      .cls-9 {
        fill: #fffc88;
      }

      .cls-10 {
        fill: #99d8ff;
      }

      .cls-11 {
        fill: #1a1a1a;
      }

      .cls-12 {
        fill: #f15a24;
      }

      .cls-13 {
        fill: #00bfb1;
      }
    </style>
  </defs>
  <g>
    <g>
      <path class="cls-12" d="M153.39,816.07l-21.35,4.39s-8.63-68.05-12.56-77.18c-.92-2.13-2.13-5.89-3.44-10.72,2.36-21.15-4.24-61.39-4.24-61.39-.93-4.02-3.63-13.21-7.1-24.49,15.2-14.4,30.54-3.02,30.54-3.02.4,8.71,1,16.41,1.88,22.47,2.22,15.35,12.73,60,13.06,61.4h0c.63,33.85,3.21,88.54,3.21,88.54Z"/>
      <path class="cls-7" d="M141.71,658.79s9.26,25.12,8.45,48.41c-.16,4.67-.13,11.84.02,20.33-.33-1.4-10.84-46.05-13.06-61.4-.88-6.06-1.48-13.76-1.88-22.47-.43-9.49-.64-20.17-.72-31.18l7.77,6.87c.12,9.02.05,21.95-.58,39.44Z"/>
      <path class="cls-6" d="M142.29,619.35l-7.77-6.87c-.04-4.9-.05-9.87-.05-14.82,0-26.29-16.62-62.67-16.62-62.67-4.92-24.76-2.65-60.63-2.65-60.63,4.19-.86,6.73-1.45,6.73-1.45l7.43,1.36s-8.11,48.34-3.9,58.4c.03,0,8.71,28.96,11.28,37.17,2.36,7.55,4.91,32.56,4.91,32.56,0,0,.49,5.14.64,16.95Z"/>
      <path class="cls-10" d="M134.52,612.48c.08,11.01.29,21.69.72,31.18,0,0-15.34-11.38-30.54,3.02-2.93-9.53-6.41-20.55-9.84-31.2-7.37-22.87-14.51-44.04-15.51-45.18-1.67-1.89-2.35-1.29-2.46-1.02-.11-.27-.79-.87-2.46,1.02-1.01,1.14-8.15,22.31-15.51,45.18-3.44,10.65-6.91,21.67-9.84,31.2h-.01c-14.94-14.17-30.04-3.38-30.53-3.02.43-9.49.64-20.17.72-31.18.04-4.9.05-9.87.05-14.82,0-26.29,16.62-62.67,16.62-62.67,4.91-24.76,2.64-60.63,2.64-60.63,8.47,1.74,23.67,4.6,38.19,5.97h.26c14.51-1.37,29.71-4.23,38.18-5.97,0,0-2.27,35.87,2.65,60.63,0,0,16.62,36.38,16.62,62.67,0,4.95.01,9.92.05,14.82Z"/>
      <path class="cls-13" d="M111.8,671.17s6.6,40.24,4.24,61.39c-4.27-15.84-9.48-43.12-8.15-61.44,3.64,2.69,3.91.05,3.91.05Z"/>
      <path class="cls-3" d="M111.8,671.17s-.27,2.64-3.91-.05l-23.78-67.01,10.75,11.37c3.43,10.65,6.91,21.67,9.84,31.2,3.47,11.28,6.17,20.47,7.1,24.49Z"/>
      <path class="cls-8" d="M94.86,615.48l-10.75-11.37-2.29-6.45-4.93-14.06-4.93,14.06-2.29,6.45-10.75,11.37c7.36-22.87,14.5-44.04,15.51-45.18,1.67-1.89,2.35-1.29,2.46-1.02-.02.06-.02.1,0,.1s.02-.04,0-.1c.11-.27.79-.87,2.46,1.02,1,1.14,8.14,22.31,15.51,45.18Z"/>
      <path class="cls-3" d="M69.67,604.11l-23.78,67.01c-3.65,2.69-3.91.05-3.91.05.93-4.02,3.63-13.21,7.1-24.49,2.93-9.53,6.4-20.55,9.84-31.2l10.75-11.37Z"/>
      <path class="cls-12" d="M49.07,646.68h.01c-3.47,11.28-6.17,20.47-7.1,24.49,0,0-6.6,40.27-4.25,61.41-1.3,4.82-2.51,8.57-3.43,10.7-3.94,9.13-12.57,77.18-12.57,77.18l-21.34-4.39s2.57-54.68,3.2-88.51c0,0,10.8-45.84,13.07-61.43.88-6.06,1.48-13.76,1.88-22.47.49-.36,15.59-11.15,30.53,3.02Z"/>
      <path class="cls-13" d="M45.89,671.12c1.33,18.33-3.88,45.62-8.16,61.46-2.35-21.14,4.25-61.41,4.25-61.41,0,0,.26,2.64,3.91-.05Z"/>
      <path class="cls-6" d="M38.57,474.36s2.27,35.87-2.64,60.63c0,0-16.62,36.38-16.62,62.67,0,4.95-.01,9.92-.05,14.82h-.01l-7.76,6.87c.15-11.81.64-16.95.64-16.95,0,0,2.54-25.01,4.91-32.56,2.57-8.21,11.25-37.17,11.27-37.17,4.22-10.06-3.89-58.4-3.89-58.4l7.43-1.36s2.54.59,6.72,1.45Z"/>
      <path class="cls-7" d="M18.54,643.66c-.4,8.71-1,16.41-1.88,22.47-2.27,15.59-13.07,61.43-13.07,61.43.15-8.5.18-15.69.02-20.36-.8-23.29,8.46-48.41,8.46-48.41-.63-17.49-.7-30.42-.58-39.44l7.76-6.87h.01c-.08,11.01-.29,21.69-.72,31.18Z"/>
    </g>
    <g>
      <path class="cls-4" d="M76.76,480.33c-14.52-1.37-29.72-4.23-38.19-5.97-4.18-.86-6.72-1.45-6.72-1.45l-7.43,1.36s8.11,48.34,3.89,58.4c-.02,0-8.7,28.96-11.27,37.17-2.37,7.55-4.91,32.56-4.91,32.56,0,0-.49,5.14-.64,16.95-.12,9.02-.05,21.95.58,39.44,0,0-9.26,25.12-8.46,48.41.16,4.67.13,11.86-.02,20.36-.63,33.83-3.2,88.51-3.2,88.51l21.34,4.39s8.63-68.05,12.57-77.18c.92-2.13,2.13-5.88,3.43-10.7,4.28-15.84,9.49-43.13,8.16-61.46l23.78-67.01,2.29-6.45"/>
      <line class="cls-4" x1="71.96" y1="597.66" x2="76.89" y2="583.6"/>
      <path class="cls-4" d="M38.57,474.36s2.27,35.87-2.64,60.63c0,0-16.62,36.38-16.62,62.67,0,4.95-.01,9.92-.05,14.82-.08,11.01-.29,21.69-.72,31.18-.4,8.71-1,16.41-1.88,22.47-2.27,15.59-13.07,61.43-13.07,61.43"/>
      <path class="cls-4" d="M76.89,569.38s.02-.04,0-.1c-.11-.27-.79-.87-2.46,1.02-1.01,1.14-8.15,22.31-15.51,45.18-3.44,10.65-6.91,21.67-9.84,31.2-3.47,11.28-6.17,20.47-7.1,24.49,0,0-6.6,40.27-4.25,61.41"/>
      <line class="cls-4" x1="58.92" y1="615.48" x2="69.67" y2="604.11"/>
      <line class="cls-4" x1="19.25" y1="612.48" x2="11.49" y2="619.35"/>
      <path class="cls-4" d="M18.53,643.66h0c.49-.36,15.59-11.15,30.53,3.02"/>
      <path class="cls-4" d="M41.98,671.17s.26,2.64,3.91-.05"/>
      <path class="cls-4" d="M150.18,727.54c.63,33.84,3.21,88.53,3.21,88.53l-21.35,4.39s-8.63-68.05-12.56-77.18c-.92-2.13-2.13-5.89-3.44-10.72-4.27-15.84-9.48-43.12-8.15-61.44l-23.78-67.01-2.29-6.45"/>
      <path class="cls-4" d="M77.02,480.33c14.51-1.37,29.71-4.23,38.18-5.97,4.19-.86,6.73-1.45,6.73-1.45l7.43,1.36s-8.11,48.34-3.9,58.4c.03,0,8.71,28.96,11.28,37.17,2.36,7.55,4.91,32.56,4.91,32.56,0,0,.49,5.14.64,16.95.12,9.02.05,21.95-.58,39.44,0,0,9.26,25.12,8.45,48.41-.16,4.67-.13,11.84.02,20.33"/>
      <line class="cls-4" x1="81.82" y1="597.66" x2="76.89" y2="583.6"/>
      <path class="cls-4" d="M115.2,474.36s-2.27,35.87,2.65,60.63c0,0,16.62,36.38,16.62,62.67,0,4.95.01,9.92.05,14.82.08,11.01.29,21.69.72,31.18.4,8.71,1,16.41,1.88,22.47,2.22,15.35,12.73,60,13.06,61.4h0s.01.03.01.03"/>
      <path class="cls-4" d="M76.89,569.38s-.02-.04,0-.1c.11-.27.79-.87,2.46,1.02,1,1.14,8.14,22.31,15.51,45.18,3.43,10.65,6.91,21.67,9.84,31.2,3.47,11.28,6.17,20.47,7.1,24.49,0,0,6.6,40.24,4.24,61.39v.02"/>
      <line class="cls-4" x1="94.86" y1="615.48" x2="84.11" y2="604.11"/>
      <line class="cls-4" x1="134.52" y1="612.48" x2="142.29" y2="619.35"/>
      <path class="cls-4" d="M135.24,643.66s-15.34-11.38-30.54,3.02"/>
      <path class="cls-4" d="M111.8,671.17s-.27,2.64-3.91-.05"/>
    </g>
  </g>
  <g>
    <g>
      <path class="cls-6" d="M405.25,816.07l-21.34,4.39s-4.82-37.98-8.9-61c-.01-.09-.03-.23-.06-.41-.77-5.45-6.97-49.44-7.89-64.09-1.65-26.67-2.01-23.84-2.01-23.84-3.21-16.9-9.27-24.44-9.27-24.44,10.74-43.7,3.69-87.7-.51-102.83-4.45-16,2.28-67.64,2.28-67.64h0c9.55-1.75,16.24-3.3,16.24-3.3l7.43,1.36s-8.11,48.34-3.89,58.4c.02,0,8.7,28.96,11.27,37.17,2.36,7.55,4.91,32.56,4.91,32.56,0,0,1.51,16.02.06,56.39,0,0,4.53,33.15,4.93,60.17.34,23.68,4.64,51.94,4.91,53.69,0,.05,0,.08,0,.08.89,23.31,1.83,43.34,1.83,43.34Z"/>
      <path class="cls-7" d="M393.57,658.79s9.26,25.12,8.45,48.41c-.41,12.01.46,40.59,1.39,65.45-.27-1.75-4.57-30.01-4.91-53.69-.4-27.02-4.93-60.17-4.93-60.17Z"/>
      <path class="cls-13" d="M367.06,694.96c.92,14.65,7.12,58.64,7.89,64.09-1.36-7.59-2.63-13.5-3.61-15.77-3.94-9.14-13.32-48.26-11.59-72.16l-6-16.9c.74-2.51,1.42-5.02,2.03-7.54,0,0,6.06,7.54,9.27,24.44,0,0,.36-2.83,2.01,23.84Z"/>
      <path class="cls-3" d="M357.55,476.2h0s-6.73,51.65-2.28,67.65c4.2,15.13,11.25,59.13.51,102.83-.61,2.52-1.29,5.03-2.03,7.54l-20.07-56.56-4.93-14.06-.13-103.27h.26c10.05-.95,20.43-2.61,28.67-4.13Z"/>
      <path class="cls-3" d="M328.62,480.33l.13,103.27-4.93,14.06-20.07,56.56c-.74-2.51-1.42-5.02-2.03-7.54-10.74-43.7-3.69-87.7.51-102.83,4.45-16-2.29-67.64-2.29-67.64h0c8.24,1.51,18.62,3.17,28.68,4.12Z"/>
      <path class="cls-13" d="M303.75,654.22l-6,16.9c1.73,23.9-7.65,63.02-11.59,72.16-1,2.31-2.29,8.39-3.68,16.18.41-2.89,7.01-49.36,7.96-64.5,1.65-26.67,2.01-23.84,2.01-23.84,3.21-16.9,9.27-24.44,9.27-24.44.61,2.52,1.29,5.03,2.03,7.54Z"/>
      <path class="cls-6" d="M299.94,476.21s6.74,51.64,2.29,67.64c-4.2,15.13-11.25,59.13-.51,102.83,0,0-6.06,7.54-9.27,24.44,0,0-.36-2.83-2.01,23.84-.95,15.14-7.55,61.61-7.96,64.5-.01.09-.02.14-.02.14-4.07,23.03-8.87,60.86-8.87,60.86l-21.34-4.39s.95-20.07,1.83-43.42c0,0,0-.02,0-.03.3-1.97,4.57-30.09,4.91-53.66.4-27.02,4.93-60.17,4.93-60.17-1.45-40.37.06-56.39.06-56.39,0,0,2.55-25.01,4.91-32.56,2.57-8.21,11.25-37.17,11.27-37.17,4.22-10.06-3.89-58.4-3.89-58.4l7.43-1.36s6.68,1.55,16.23,3.29h0Z"/>
      <path class="cls-7" d="M263.93,658.79s-4.53,33.15-4.93,60.17c-.34,23.57-4.61,51.69-4.91,53.66.93-24.86,1.8-53.41,1.39-65.42-.81-23.29,8.45-48.41,8.45-48.41Z"/>
    </g>
    <g>
      <path class="cls-4" d="M254.09,772.62c.93-24.86,1.8-53.41,1.39-65.42-.81-23.29,8.45-48.41,8.45-48.41-1.45-40.37.06-56.39.06-56.39,0,0,2.55-25.01,4.91-32.56,2.57-8.21,11.25-37.17,11.27-37.17,4.22-10.06-3.89-58.4-3.89-58.4l7.43-1.36s6.68,1.55,16.23,3.29c8.24,1.52,18.62,3.18,28.68,4.13l.13,103.27-4.93,14.06"/>
      <path class="cls-4" d="M282.46,759.6c-4.07,23.03-8.87,60.86-8.87,60.86l-21.34-4.39s.95-20.07,1.83-43.42"/>
      <path class="cls-4" d="M323.82,597.66l-20.07,56.56-6,16.9c1.73,23.9-7.65,63.02-11.59,72.16-1,2.31-2.29,8.39-3.68,16.18"/>
      <path class="cls-4" d="M299.94,476.21s6.74,51.64,2.29,67.64c-4.2,15.13-11.25,59.13-.51,102.83.61,2.52,1.29,5.03,2.03,7.54"/>
      <path class="cls-4" d="M263.93,658.79s-4.53,33.15-4.93,60.17c-.34,23.57-4.61,51.69-4.91,53.66,0,0,0,.02,0,.03-.01.05-.01.08-.01.08"/>
      <path class="cls-4" d="M301.72,646.68s-6.06,7.54-9.27,24.44c0,0-.36-2.83-2.01,23.84-.95,15.14-7.55,61.61-7.96,64.5-.01.09-.02.14-.02.14"/>
      <path class="cls-4" d="M374.95,759.05c-1.36-7.59-2.63-13.5-3.61-15.77-3.94-9.14-13.32-48.26-11.59-72.16l-6-16.9-20.07-56.56"/>
      <path class="cls-4" d="M403.42,772.73c.89,23.31,1.83,43.34,1.83,43.34l-21.34,4.39s-4.82-37.98-8.9-61"/>
      <path class="cls-4" d="M328.88,480.33c10.05-.95,20.43-2.61,28.67-4.13,9.55-1.74,16.24-3.29,16.24-3.29l7.43,1.36s-8.11,48.34-3.89,58.4c.02,0,8.7,28.96,11.27,37.17,2.36,7.55,4.91,32.56,4.91,32.56,0,0,1.51,16.02.06,56.39,0,0,9.26,25.12,8.45,48.41-.41,12.01.46,40.59,1.39,65.45"/>
      <line class="cls-4" x1="333.68" y1="597.66" x2="328.75" y2="583.6"/>
      <path class="cls-4" d="M357.55,476.21s-6.73,51.64-2.28,67.64c4.2,15.13,11.25,59.13.51,102.83-.61,2.52-1.29,5.03-2.03,7.54"/>
      <path class="cls-4" d="M393.57,658.79s4.53,33.15,4.93,60.17c.34,23.68,4.64,51.94,4.91,53.69,0,.05,0,.08,0,.08"/>
      <path class="cls-4" d="M355.78,646.68s6.06,7.54,9.27,24.44c0,0,.36-2.83,2.01,23.84.92,14.65,7.12,58.64,7.89,64.09.03.18.05.32.06.41s.02.14.02.14"/>
    </g>
  </g>
  <g>
    <path class="cls-1" d="M331.6,42.39c-2.65,2.26-5.94,3.39-9.85,3.39-2.04,0-4.04-.26-6-.78-1-.3-1.85-.55-2.54-.75-.7-.2-1.28-.36-1.76-.49-.44.04-.73.21-.88.49-.15.28-.23.51-.23.69h-.78l-1.11-9.85.65-.39c.48,1.09,1.1,2.12,1.86,3.1.76.98,1.66,1.84,2.71,2.58,1.04.74,2.19,1.33,3.46,1.76,1.26.44,2.65.65,4.17.65,1.26,0,2.42-.2,3.49-.59,1.06-.39,1.99-.95,2.77-1.66.78-.72,1.4-1.55,1.86-2.51.46-.96.69-2,.69-3.13,0-2.48-.89-4.48-2.67-6-.87-.74-1.86-1.49-2.97-2.25-1.11-.76-2.36-1.51-3.75-2.25-1.61-.87-3.08-1.75-4.4-2.64-1.33-.89-2.53-1.84-3.62-2.84-2.17-2.04-3.26-4.72-3.26-8.02,0-2.96,1.22-5.52,3.65-7.7,2.39-2.13,5.35-3.2,8.87-3.2,1.87,0,3.65.28,5.35.85.87.26,1.63.49,2.28.68.65.2,1.19.34,1.63.42.48-.04.79-.21.95-.49.15-.28.25-.53.29-.75h.72l.85,9.85-.98.07c-.7-2.09-1.95-3.84-3.75-5.25-1.81-1.41-4.23-2.12-7.27-2.12-2.22,0-4.03.65-5.45,1.96-1.41,1.3-2.12,2.96-2.12,4.96s1.07,3.81,3.2,5.54c2.09,1.61,4.57,3.2,7.43,4.76l-.46-.2c1.78.91,3.36,1.85,4.73,2.8,1.37.96,2.53,1.99,3.49,3.1.96,1.11,1.67,2.3,2.15,3.59.48,1.28.72,2.71.72,4.27,0,3.3-1.37,6.09-4.11,8.35Z"/>
    <path class="cls-1" d="M338.84,45v-.65h.91c.87,0,1.44-.23,1.73-.68.28-.46.42-1.29.42-2.51V4.7c0-1.22-.14-2.05-.42-2.51-.28-.46-.86-.69-1.73-.69h-.91v-.65h29.09l.07,6.72h-.91c-.26-1.74-.83-2.78-1.7-3.13-.78-.3-1.89-.46-3.33-.46h-13.17c-.78,0-1.22.09-1.3.26-.09.17-.13.59-.13,1.24v14.93h13.24c1.7,0,2.79-.22,3.29-.65.5-.43.82-1.3.95-2.61h.85v9.85h-.85c-.09-.65-.2-1.2-.33-1.63-.13-.43-.34-.78-.62-1.04-.28-.26-.7-.45-1.24-.55-.54-.11-1.23-.16-2.05-.16h-13.24v17.02c0,.61.22.97.65,1.08.43.11,1.28.16,2.54.16h10.76c1.04,0,1.95-.05,2.71-.16.76-.11,1.45-.34,2.06-.68.61-.35,1.15-.82,1.63-1.4.48-.59.93-1.38,1.37-2.38h1.04l-1.63,7.76h-29.74Z"/>
    <path class="cls-1" d="M418.28,45h-11.09v-.65c1.04,0,1.78-.17,2.22-.52.17-.17.26-.43.26-.78.09-.39,0-.87-.26-1.44l-4.04-9.91h-19.63l-3.65,9.13c-.35.91-.52,1.59-.52,2.02,0,.39.09.67.26.85.43.44,1.17.65,2.22.65v.65h-9.78v-.65c.96-.09,1.78-.48,2.48-1.17.7-.7,1.28-1.59,1.76-2.67L395.19.39h2.94l17.35,41.8c.52.91.99,1.48,1.4,1.7.41.22.88.37,1.4.46v.65ZM395.65,7.24l-8.61,21.26h17.22l-8.61-21.26Z"/>
    <path class="cls-1" d="M447.43,6.72c0-1.96-.15-3.32-.46-4.08-.3-.76-.96-1.14-1.96-1.14h-.98v-.65h10.37v.65h-.98c-1,0-1.65.38-1.96,1.14-.3.76-.46,2.12-.46,4.08v22.83c0,5.22-1.43,9.23-4.3,12.03-2.87,2.8-6.94,4.21-12.2,4.21s-9.33-1.41-12.2-4.24c-2.87-2.83-4.3-6.87-4.3-12.13V4.7c0-1.22-.15-2.05-.46-2.51-.3-.46-.94-.69-1.89-.69h-.98v-.65h12.13v.65h-.91c-1,0-1.64.23-1.92.69-.28.46-.42,1.29-.42,2.51v24.85c0,8.65,3.93,12.98,11.8,12.98,3.78,0,6.74-1.08,8.87-3.23,2.13-2.15,3.2-5.14,3.2-8.97V6.72Z"/>
    <path class="cls-1" d="M467.52,41.15c0,1.22.14,2.05.42,2.51.28.46.92.68,1.92.68h.91v.65h-11.87v-.65h.91c.87,0,1.45-.23,1.73-.68.28-.46.42-1.29.42-2.51V4.7c0-1.22-.14-2.05-.42-2.51-.28-.46-.86-.69-1.73-.69h-.91v-.65h15.59c4.61,0,8.2.99,10.76,2.97,2.56,1.98,3.85,4.88,3.85,8.71,0,2.74-.92,5.07-2.77,6.98-1.85,1.91-4.66,3.13-8.45,3.65,1.26,1.13,2.38,2.18,3.36,3.13.98.96,1.77,1.81,2.38,2.54.61.74,1.28,1.59,2.02,2.54.74.96,1.54,2,2.41,3.13.74.96,1.38,2.01,1.92,3.16.54,1.15,1.08,2.22,1.6,3.2.52.98,1.1,1.8,1.73,2.48.63.67,1.38,1.01,2.25,1.01v.65h-7.96c-.48-.96-.89-1.79-1.24-2.51-.35-.72-.75-1.49-1.21-2.32-.46-.83-.88-1.57-1.27-2.22-1.04-1.65-2.15-3.22-3.33-4.7-1.17-1.48-2.09-2.61-2.74-3.39-1.26-1.52-3.35-3.37-6.26-5.54l-4.04.07v16.76ZM470.65,21.26c3.96,0,7.07-.78,9.33-2.35,2.26-1.57,3.39-3.91,3.39-7.04,0-2.74-.91-4.75-2.74-6.03-1.83-1.28-4.52-1.92-8.09-1.92-1.39,0-2.47.05-3.23.16-.76.11-1.36.42-1.79.95v16.24h3.13Z"/>
    <path class="cls-1" d="M504.11,37.24c3.04,3.52,7.26,5.28,12.65,5.28,2.35,0,4.65-.37,6.91-1.11,2.26-.74,4.2-1.83,5.8-3.26l.91,2.41c-2.09,1.83-4.35,3.15-6.78,3.98-2.44.83-5.09,1.24-7.96,1.24-6.74,0-12.11-2.06-16.11-6.2-4-4.13-6-9.67-6-16.63s2.06-12.15,6.2-16.5c4.17-4.3,9.48-6.46,15.91-6.46,2.43,0,4.74.26,6.91.78,1.09.22,2,.42,2.74.62.74.19,1.33.36,1.76.49.35,0,.67-.21.98-.62.3-.41.5-.82.59-1.21h.72l.39,8.87.07,1.89-.72.2c-.7-1.52-1.5-2.76-2.41-3.72-.91-.96-1.96-1.74-3.13-2.35-1.13-.56-2.29-1-3.49-1.3-1.2-.3-2.4-.46-3.62-.46-5.22,0-9.35,1.78-12.39,5.35-3,3.61-4.5,8.39-4.5,14.35s1.52,10.87,4.57,14.35Z"/>
    <path class="cls-1" d="M538.64,2.18c-.28-.46-.92-.69-1.92-.69h-.91v-.65h11.94v.65h-.91c-.91,0-1.51.23-1.79.69-.28.46-.42,1.29-.42,2.51v16.04h21.33V4.7c0-1.22-.14-2.05-.42-2.51-.28-.46-.92-.69-1.92-.69h-.91v-.65h12v.65h-.91c-.96,0-1.58.23-1.86.69-.28.46-.42,1.29-.42,2.51v36.46c0,1.22.14,2.05.42,2.51.28.46.9.68,1.86.68h.91v.65h-12v-.65h.91c1,0,1.64-.23,1.92-.68.28-.46.42-1.29.42-2.51v-17.09h-21.33v17.09c0,1.22.14,2.05.42,2.51.28.46.88.68,1.79.68h.91v.65h-11.94v-.65h.91c1,0,1.64-.23,1.92-.68.28-.46.42-1.29.42-2.51V4.7c0-1.22-.14-2.05-.42-2.51Z"/>
    <path class="cls-1" d="M588.66,43.66c.28.46.97.68,2.05.68h1.04v.65h-12.65v-.65h1.04c1.09,0,1.77-.23,2.05-.68.28-.46.42-1.29.42-2.51V4.7c0-1.22-.14-2.05-.42-2.51-.28-.46-.97-.69-2.05-.69h-1.04v-.65h12.65v.65h-1.04c-1.09,0-1.77.23-2.05.69-.28.46-.42,1.29-.42,2.51v36.46c0,1.22.14,2.05.42,2.51Z"/>
    <path class="cls-1" d="M630.3,6.33c0-1.83-.14-3.09-.42-3.78-.28-.69-.95-1.04-1.99-1.04h-1.11v-.65h10.57v.65h-1.04c-1,0-1.65.35-1.96,1.04-.3.7-.46,1.96-.46,3.78v39h-3.33l-26.15-37.44v31.76c0,1.74.15,2.96.46,3.65.3.7.96,1.04,1.96,1.04h.98v.65h-10.5v-.65h1.04c1.04,0,1.72-.35,2.02-1.04.3-.7.46-1.91.46-3.65V4.24l-1.11-2.02c-.22-.35-.45-.55-.68-.62-.24-.07-.56-.1-.95-.1h-.78v-.65h8.61c4.09,6.13,8.15,12.07,12.2,17.8,4.04,5.74,8.11,11.67,12.19,17.8V6.33Z"/>
  </g>
  <g>
    <g>
      <path class="cls-2" d="M304.52,261.73h2.91s3.93,1.25,13.24,1.75c2.38.13,5.11.21,8.21.21s5.83-.08,8.21-.21c9.31-.5,13.24-1.74,13.24-1.74l.4-1.02c1.57.91,2.6,1.02,2.6,1.02l29.16,4.41s-14.34,18.62-3.01,54.82c-1,8.56-6.91,57.14-6.91,57.55-.04.37-.7,5.22-.39,10.1,0,0,3.37,15.96,6.55,32.54,0,0-16.82,3.57-26.89,13.05-1.18,1.12-2.28,2.29-3.3,3.5-20.83-25.37-39.33,0-39.33,0-1.01-1.21-2.11-2.38-3.3-3.5-10.07-9.48-26.89-13.05-26.89-13.05,3.19-16.58,6.56-32.54,6.56-32.54.3-4.88-.36-9.73-.4-10.1,0-.49-6.27-51.94-6.98-58.21,11.33-36.21-2.43-54.16-2.43-54.16l30.54-5.05c-.91.44-1.56.59-1.79.63Z"/>
      <path class="cls-9" d="M351.69,190.46c7.36,9.15,6.07,23.89,6.07,23.89,0,0-.31,20.5-14.9,30.59,0,0-1.35,5.68,2.74,11.04,1.92,2.51,3.74,3.94,5.13,4.74l-.4,1.02s-3.93,1.24-13.24,1.74l2.06-79.99.18-.54c4.36,1.27,9.14,3.51,12.36,7.51Z"/>
      <path class="cls-8" d="M348.54,437.71c-7.62,9.05-10.6,19.84-10.6,19.84h-18.13s-2.97-10.79-10.6-19.84c0,0,18.5-25.37,39.33,0Z"/>
      <path class="cls-9" d="M339.33,182.95l-.18.54-2.06,79.99c-2.38.13-5.11.21-8.21.21s-5.83-.08-8.21-.21l-2.07-79.99-.15-.55c5.11-1.48,9.64-1.61,10.38-1.62h.1c.72.01,5.27.14,10.4,1.63Z"/>
      <path class="cls-9" d="M318.6,183.49l2.07,79.99c-9.31-.5-13.24-1.74-13.24-1.74h-2.91c.23-.05.88-.2,1.79-.64h.01c1.45-.7,3.58-2.15,5.84-5.12,4.08-5.36,2.74-11.04,2.74-11.04-14.6-10.09-14.91-30.59-14.91-30.59,0,0-1.29-14.74,6.07-23.89,3.23-4.01,8.02-6.25,12.39-7.52l.15.55Z"/>
    </g>
    <g>
      <path class="cls-4" d="M306.31,261.1c-.91.44-1.56.59-1.79.63-.06.01-.09.01-.09.01"/>
      <path class="cls-4" d="M328.83,181.32c-.74.01-5.27.14-10.38,1.62-4.37,1.27-9.16,3.51-12.39,7.52-7.36,9.15-6.07,23.89-6.07,23.89,0,0,.31,20.5,14.91,30.59,0,0,1.34,5.68-2.74,11.04-2.26,2.97-4.39,4.42-5.84,5.12"/>
      <line class="cls-4" x1="318.6" y1="183.49" x2="320.67" y2="263.48"/>
      <path class="cls-4" d="M285.18,378.52c.04.37.7,5.22.4,10.1,0,0-3.37,15.96-6.56,32.54,0,0,16.82,3.57,26.89,13.05,1.19,1.12,2.29,2.29,3.3,3.5,7.63,9.05,10.6,19.84,10.6,19.84h9.07"/>
      <path class="cls-4" d="M278.13,319.69s.02.24.07.62c.71,6.27,6.98,57.72,6.98,58.21t-.01-.02"/>
      <path class="cls-4" d="M307.43,261.74s3.93,1.24,13.24,1.74c2.38.13,5.11.21,8.21.21"/>
      <path class="cls-4" d="M328.83,181.32h.1c.72.01,5.27.14,10.4,1.63,4.36,1.27,9.14,3.51,12.36,7.51,7.36,9.15,6.07,23.89,6.07,23.89,0,0-.31,20.5-14.9,30.59,0,0-1.35,5.68,2.74,11.04,1.92,2.51,3.74,3.94,5.13,4.74,1.57.91,2.6,1.02,2.6,1.02l29.16,4.41s-14.34,18.62-3.01,54.82v.02"/>
      <line class="cls-4" x1="339.15" y1="183.49" x2="337.09" y2="263.48"/>
      <path class="cls-4" d="M372.58,378.5s0,.01-.01.02c-.04.37-.7,5.22-.39,10.1,0,0,3.37,15.96,6.55,32.54,0,0-16.82,3.57-26.89,13.05-1.18,1.12-2.28,2.29-3.3,3.5-7.62,9.05-10.6,19.84-10.6,19.84h-9.06"/>
      <path class="cls-4" d="M379.62,319.69s-.05.49-.14,1.28c-1,8.56-6.91,57.14-6.91,57.55"/>
      <path class="cls-4" d="M350.33,261.74s-3.93,1.24-13.24,1.74c-2.38.13-5.11.21-8.21.21"/>
      <path class="cls-4" d="M309.21,437.71s18.5-25.37,39.33,0"/>
      <path class="cls-4" d="M306.32,261.1h-.01l-30.54,5.05s13.76,17.95,2.43,54.16"/>
    </g>
  </g>
  <g>
    <g>
      <path class="cls-2" d="M101.28,261.49l28.41,2.98s-13.48,14.75-2.16,55.22h.02c-.62,4.19-9.64,58.85-9.85,60.1,0,0-2.79,11.24-1.87,15.34,0,0,.99,16.4,6.64,25.54l-36.06,19.47h-19.15l-36.06-19.47c5.65-9.14,6.64-25.54,6.64-25.54.92-4.1-1.87-15.34-1.87-15.34-.22-1.29-9.88-59.88-9.88-60.35,11.32-40.47-2.86-53.54-2.86-53.54l29.16-4.41s.31-.03.85-.22c0,0,8.68,6.16,23.59,6.76h0c14.91-.6,21.87-7.55,21.87-7.55,1.56.9,2.57,1.01,2.57,1.01Z"/>
      <path class="cls-9" d="M99.65,190.21c7.36,9.15,6.07,23.89,6.07,23.89,0,0-.31,20.5-14.91,30.59,0,0-1.34,5.68,2.75,11.04,1.93,2.53,3.76,3.96,5.15,4.75,0,0-6.96,6.95-21.87,7.55v-27.75c18.01-2.84,18.89-19.24,18.57-26.5-.16-3.75-5.14-5.31-9.89-5.93h0s1.59-24.61,1.59-24.61l.18-.55c4.36,1.27,9.14,3.52,12.36,7.52Z"/>
      <path class="cls-9" d="M87.29,182.69l-.18.55-1.59,24.6h0c-4.44-.58-8.68-.36-8.68-.36,0,0-4.25-.22-8.69.37h0s-1.59-24.61-1.59-24.61l-.15-.56c5.09-1.47,9.6-1.6,10.37-1.61h.11c.75.01,5.29.14,10.4,1.62Z"/>
      <polygon class="cls-8" points="86.41 440.14 83.49 458.52 69.61 458.52 67.26 440.14 76.78 440.14 76.89 440.14 86.41 440.14"/>
      <path class="cls-9" d="M76.84,240.28v27.75h0c-14.91-.6-23.59-6.76-23.59-6.76,1.31-.44,3.98-1.74,6.88-5.54,4.08-5.36,2.74-11.04,2.74-11.04-14.6-10.09-14.91-30.59-14.91-30.59,0,0-1.29-14.74,6.07-23.89,3.23-4.01,8.02-6.26,12.39-7.53l.15.56,1.59,24.6h0c-4.76.64-9.73,2.19-9.89,5.94-.31,7.26.57,23.66,18.58,26.5Z"/>
    </g>
    <g>
      <path class="cls-4" d="M76.78,181.07c-.77.01-5.28.14-10.37,1.61-4.37,1.27-9.16,3.52-12.39,7.53-7.36,9.15-6.07,23.89-6.07,23.89,0,0,.31,20.5,14.91,30.59,0,0,1.34,5.68-2.74,11.04-2.9,3.8-5.57,5.1-6.88,5.54-.54.19-.85.22-.85.22l-29.16,4.41s14.18,13.07,2.86,53.54"/>
      <line class="cls-4" x1="66.56" y1="183.24" x2="68.15" y2="207.84"/>
      <path class="cls-4" d="M35.97,379.81v-.02s2.79,11.24,1.87,15.34c0,0-.99,16.4-6.64,25.54l36.06,19.47h9.52"/>
      <path class="cls-4" d="M26.09,319.44c0,.47,9.66,59.06,9.88,60.35"/>
      <path class="cls-4" d="M76.84,268.03v-27.75c-18.01-2.84-18.89-19.24-18.58-26.5.16-3.75,5.13-5.3,9.89-5.93,4.44-.59,8.69-.37,8.69-.37"/>
      <path class="cls-4" d="M53.24,261.27s8.68,6.16,23.59,6.76"/>
      <path class="cls-4" d="M76.78,181.07h.11c.75.01,5.29.14,10.4,1.62,4.36,1.27,9.14,3.52,12.36,7.52,7.36,9.15,6.07,23.89,6.07,23.89,0,0-.31,20.5-14.91,30.59,0,0-1.34,5.68,2.75,11.04,1.93,2.53,3.76,3.96,5.15,4.75,1.56.9,2.57,1.01,2.57,1.01"/>
      <path class="cls-4" d="M76.84,207.48s4.24-.22,8.68.37c4.75.62,9.73,2.18,9.89,5.93.32,7.26-.56,23.66-18.57,26.5"/>
      <line class="cls-4" x1="87.11" y1="183.24" x2="85.52" y2="207.84"/>
      <path class="cls-4" d="M117.7,379.79s-2.79,11.24-1.87,15.34c0,0,.99,16.4,6.64,25.54l-36.06,19.47h-9.63"/>
      <path class="cls-4" d="M127.58,319.44s-.01.1-.03.25c-.62,4.19-9.64,58.85-9.85,60.1v.02"/>
      <path class="cls-4" d="M76.83,268.03h0c14.91-.6,21.87-7.55,21.87-7.55"/>
      <polyline class="cls-4" points="67.26 440.14 69.61 458.52 83.49 458.52 86.41 440.14"/>
      <path class="cls-4" d="M101.28,261.49l28.41,2.98s-13.48,14.75-2.16,55.22"/>
    </g>
  </g>
  <g>
    <g>
      <path class="cls-5" d="M62.49,303.59c-.39.33-.87.5-1.44.5-.3,0-.59-.04-.88-.11-.15-.04-.27-.08-.37-.11-.1-.03-.19-.05-.26-.07-.06,0-.11.03-.13.07-.02.04-.03.07-.03.1h-.11l-.16-1.44.1-.06c.07.16.16.31.27.45.11.14.24.27.4.38.15.11.32.19.51.26.18.06.39.1.61.1.18,0,.35-.03.51-.09.16-.06.29-.14.41-.24.11-.1.21-.23.27-.37.07-.14.1-.29.1-.46,0-.36-.13-.66-.39-.88-.13-.11-.27-.22-.43-.33-.16-.11-.35-.22-.55-.33-.24-.13-.45-.26-.64-.39-.19-.13-.37-.27-.53-.42-.32-.3-.48-.69-.48-1.17,0-.43.18-.81.53-1.13.35-.31.78-.47,1.3-.47.27,0,.53.04.78.12.13.04.24.07.33.1.1.03.17.05.24.06.07,0,.12-.03.14-.07.02-.04.04-.08.04-.11h.1l.12,1.44h-.14c-.1-.3-.28-.55-.55-.76-.26-.21-.62-.31-1.06-.31-.32,0-.59.1-.8.29-.21.19-.31.43-.31.73s.16.56.47.81c.31.24.67.47,1.09.7l-.07-.03c.26.13.49.27.69.41.2.14.37.29.51.45.14.16.24.34.31.52.07.19.1.4.1.62,0,.48-.2.89-.6,1.22Z"/>
      <path class="cls-5" d="M63.55,303.97v-.1h.13c.13,0,.21-.03.25-.1.04-.07.06-.19.06-.37v-5.33c0-.18-.02-.3-.06-.37-.04-.07-.13-.1-.25-.1h-.13v-.1h4.26v.98s-.12,0-.12,0c-.04-.25-.12-.41-.25-.46-.11-.04-.28-.07-.49-.07h-1.93c-.11,0-.18.01-.19.04-.01.03-.02.09-.02.18v2.18h1.94c.25,0,.41-.03.48-.1.07-.06.12-.19.14-.38h.12v1.44h-.12c-.01-.1-.03-.17-.05-.24-.02-.06-.05-.11-.09-.15-.04-.04-.1-.07-.18-.08-.08-.02-.18-.02-.3-.02h-1.94v2.49c0,.09.03.14.1.16.06.02.19.02.37.02h1.57c.15,0,.28,0,.4-.02.11-.02.21-.05.3-.1.09-.05.17-.12.24-.21.07-.09.14-.2.2-.35h.15l-.24,1.14h-4.35Z"/>
      <path class="cls-5" d="M75.17,303.97h-1.62v-.1c.15,0,.26-.03.32-.08.03-.03.04-.06.04-.11.01-.06,0-.13-.04-.21l-.59-1.45h-2.87l-.53,1.34c-.05.13-.08.23-.08.3,0,.06.01.1.04.12.06.06.17.1.32.1v.1h-1.43v-.1c.14-.01.26-.07.36-.17.1-.1.19-.23.26-.39l2.44-5.87h.43l2.54,6.12c.08.13.14.22.21.25.06.03.13.05.21.07v.1ZM71.86,298.45l-1.26,3.11h2.52l-1.26-3.11Z"/>
      <path class="cls-5" d="M79.44,298.37c0-.29-.02-.48-.07-.6-.04-.11-.14-.17-.29-.17h-.14v-.1h1.52v.1h-.14c-.15,0-.24.06-.29.17-.04.11-.07.31-.07.6v3.34c0,.76-.21,1.35-.63,1.76-.42.41-1.01.62-1.78.62s-1.36-.21-1.78-.62c-.42-.41-.63-1-.63-1.77v-3.62c0-.18-.02-.3-.07-.37-.04-.07-.14-.1-.28-.1h-.14v-.1h1.77v.1h-.13c-.15,0-.24.03-.28.1-.04.07-.06.19-.06.37v3.63c0,1.27.58,1.9,1.73,1.9.55,0,.99-.16,1.3-.47.31-.31.47-.75.47-1.31v-3.45Z"/>
      <path class="cls-5" d="M82.38,303.41c0,.18.02.3.06.37.04.07.14.1.28.1h.13v.1h-1.74v-.1h.13c.13,0,.21-.03.25-.1.04-.07.06-.19.06-.37v-5.33c0-.18-.02-.3-.06-.37-.04-.07-.13-.1-.25-.1h-.13v-.1h2.28c.67,0,1.2.14,1.57.43.38.29.56.71.56,1.27,0,.4-.14.74-.41,1.02-.27.28-.68.46-1.24.53.18.17.35.32.49.46.14.14.26.26.35.37.09.11.19.23.3.37.11.14.23.29.35.46.11.14.2.29.28.46.08.17.16.32.23.47.08.14.16.26.25.36.09.1.2.15.33.15v.1h-1.16c-.07-.14-.13-.26-.18-.37-.05-.1-.11-.22-.18-.34-.07-.12-.13-.23-.19-.32-.15-.24-.31-.47-.49-.69-.17-.22-.31-.38-.4-.5-.18-.22-.49-.49-.92-.81h-.59v2.46ZM82.83,300.5c.58,0,1.03-.11,1.36-.34.33-.23.5-.57.5-1.03,0-.4-.13-.69-.4-.88-.27-.19-.66-.28-1.18-.28-.2,0-.36,0-.47.02-.11.02-.2.06-.26.14v2.38h.46Z"/>
      <path class="cls-5" d="M87.73,302.84c.45.52,1.06.77,1.85.77.34,0,.68-.05,1.01-.16.33-.11.61-.27.85-.48l.13.35c-.31.27-.64.46-.99.58-.36.12-.74.18-1.16.18-.99,0-1.77-.3-2.36-.91-.59-.6-.88-1.42-.88-2.43s.3-1.78.91-2.41c.61-.63,1.39-.94,2.33-.94.36,0,.69.04,1.01.11.16.03.29.06.4.09.11.03.19.05.26.07.05,0,.1-.03.14-.09.04-.06.07-.12.09-.18h.1l.06,1.3v.28s-.1.03-.1.03c-.1-.22-.22-.4-.35-.54-.13-.14-.29-.25-.46-.34-.17-.08-.34-.15-.51-.19-.18-.04-.35-.07-.53-.07-.76,0-1.37.26-1.81.78-.44.53-.66,1.23-.66,2.1s.22,1.59.67,2.1Z"/>
      <path class="cls-5" d="M92.78,297.71c-.04-.07-.14-.1-.28-.1h-.13v-.1h1.75v.1h-.13c-.13,0-.22.03-.26.1-.04.07-.06.19-.06.37v2.35h3.12v-2.35c0-.18-.02-.3-.06-.37-.04-.07-.14-.1-.28-.1h-.13v-.1h1.76v.1h-.13c-.14,0-.23.03-.27.1-.04.07-.06.19-.06.37v5.33c0,.18.02.3.06.37.04.07.13.1.27.1h.13v.1h-1.76v-.1h.13c.15,0,.24-.03.28-.1.04-.07.06-.19.06-.37v-2.5h-3.12v2.5c0,.18.02.3.06.37.04.07.13.1.26.1h.13v.1h-1.75v-.1h.13c.15,0,.24-.03.28-.1.04-.07.06-.19.06-.37v-5.33c0-.18-.02-.3-.06-.37Z"/>
      <path class="cls-5" d="M100.1,303.77c.04.07.14.1.3.1h.15v.1h-1.85v-.1h.15c.16,0,.26-.03.3-.1.04-.07.06-.19.06-.37v-5.33c0-.18-.02-.3-.06-.37-.04-.07-.14-.1-.3-.1h-.15v-.1h1.85v.1h-.15c-.16,0-.26.03-.3.1-.04.07-.06.19-.06.37v5.33c0,.18.02.3.06.37Z"/>
      <path class="cls-5" d="M106.19,298.31c0-.27-.02-.45-.06-.55-.04-.1-.14-.15-.29-.15h-.16v-.1h1.55v.1h-.15c-.15,0-.24.05-.29.15-.04.1-.07.29-.07.55v5.71h-.49l-3.83-5.48v4.65c0,.25.02.43.07.53.04.1.14.15.29.15h.14v.1h-1.54v-.1h.15c.15,0,.25-.05.3-.15.04-.1.07-.28.07-.53v-5.18l-.16-.3c-.03-.05-.07-.08-.1-.09-.04,0-.08-.01-.14-.01h-.11v-.1h1.26c.6.9,1.19,1.76,1.78,2.6.59.84,1.19,1.71,1.78,2.6v-4.41Z"/>
    </g>
    <path class="cls-5" d="M57.84,303.52l-2.66-1.77c.09-.26.15-.54.16-.84l3.21-.81-5.55.22.21-.13.58-.36,1.4.08c-.13-.38-.35-.73-.62-1.02l3.41-2.51-3.75,2.21c-.06-.05-.12-.09-.19-.13l1.56-3.89-2.79,4.82-.19-.52.54-.78c-.19-.04-.39-.07-.59-.07-.13,0-.25.01-.38.03l-1.5-3.8,1.09,3.88c-.35.1-.68.27-.95.5l-3.61-3.22,4.6,5.28-.79-.05-.08-.11-.8-1.09c-.2.35-.32.74-.35,1.16l-3.21.2,3.21.13c.02.42.13.82.31,1.17l-2.71,2.64,4.44-3.06-.33.69-.82.47c.3.28.67.5,1.08.62l-1.08,3.21,1.42-3.13c.15.03.31.04.47.04.38,0,.74-.08,1.07-.21l1.74,2.26-1.64-3.85.68.58.12.4c.19-.19.35-.4.47-.64l2.82,1.39Z"/>
  </g>
  <g>
    <g>
      <g>
        <path class="cls-5" d="M301.39,303.24c0-.54.4-.96.96-.96s.96.41.96.96-.4.95-.96.95-.96-.41-.96-.95ZM303.22,303.24c0-.5-.36-.87-.87-.87s-.87.38-.87.87.36.87.87.87.87-.37.87-.87Z"/>
        <path class="cls-5" d="M302.35,304.22c-.57,0-.99-.41-.99-.98s.42-.99.99-.99.99.42.99.99-.42.98-.99.98ZM302.35,302.31c-.54,0-.93.39-.93.93s.39.92.93.92.93-.39.93-.92-.39-.93-.93-.93ZM302.35,304.14c-.51,0-.9-.39-.9-.9s.39-.9.9-.9.9.38.9.9-.38.9-.9.9ZM302.35,302.4c-.49,0-.84.35-.84.84s.35.84.84.84.84-.35.84-.84-.35-.84-.84-.84Z"/>
      </g>
      <g>
        <path class="cls-5" d="M305.11,303.57v-.83h.08v.82c0,.34.2.56.52.56s.52-.21.52-.56v-.82h.08v.83c0,.38-.23.63-.6.63s-.6-.25-.6-.63Z"/>
        <path class="cls-5" d="M305.71,304.22c-.38,0-.63-.26-.63-.66v-.86h.14v.85c0,.32.19.53.49.53s.49-.2.49-.53v-.85h.14v.86c0,.4-.25.66-.63.66ZM305.14,302.76v.8c0,.37.22.6.57.6s.57-.23.57-.6v-.8h-.02v.79c0,.36-.21.59-.55.59s-.55-.22-.55-.59v-.79h-.02Z"/>
      </g>
      <g>
        <path class="cls-5" d="M308.94,302.73v.08h-.13c-.3,0-.5.23-.5.55v.81h-.08v-1.43h.07v.32c.1-.2.28-.33.52-.33h.12Z"/>
        <path class="cls-5" d="M308.35,304.2h-.14v-1.49h.13v.25c.12-.16.29-.25.49-.25h.15v.14h-.16c-.28,0-.47.21-.47.52v.84ZM308.26,304.14h.02v-.78c0-.34.22-.58.53-.58h.1v-.02h-.09c-.22,0-.39.11-.48.31l-.05.12-.02-.42h0v1.37Z"/>
      </g>
      <g>
        <path class="cls-5" d="M314.05,303.48h-1.34c.01.37.28.63.63.63.25,0,.45-.13.57-.35h.09c-.14.28-.37.44-.66.44-.41,0-.72-.32-.72-.75s.31-.74.72-.74.7.32.7.73c0,.01,0,.02,0,.04ZM312.72,303.4h1.25c-.02-.36-.28-.61-.62-.61s-.61.26-.63.61Z"/>
        <path class="cls-5" d="M313.35,304.22c-.43,0-.75-.33-.75-.78s.32-.77.75-.77.73.33.73.76c0,.01,0,.03,0,.04v.03h-1.33c.03.33.27.57.6.57.24,0,.43-.12.54-.34v-.02h.16l-.02.04c-.14.29-.38.45-.69.45ZM313.35,302.74c-.39,0-.69.31-.69.71s.3.72.69.72c.27,0,.48-.13.61-.38h-.02c-.12.22-.34.35-.59.35-.37,0-.65-.28-.66-.66v-.03s1.34,0,1.34,0h0c0-.41-.29-.71-.67-.71ZM314,303.43h-1.32v-.03c.03-.37.31-.64.66-.64s.63.26.65.64v.03ZM312.75,303.37h1.19c-.03-.32-.27-.55-.59-.55s-.56.23-.6.55Z"/>
      </g>
      <g>
        <path class="cls-5" d="M317.9,303.26v.9h-.08v-.88c0-.3-.16-.5-.41-.5-.28,0-.48.22-.48.54v.84h-.08v-.88c0-.3-.16-.5-.41-.5-.28,0-.48.22-.48.54v.84h-.08v-1.43h.07v.29c.1-.2.29-.32.51-.32s.4.14.46.37c.08-.23.27-.37.52-.37.29,0,.48.22.48.56Z"/>
        <path class="cls-5" d="M317.93,304.2h-.14v-.91c0-.28-.15-.47-.38-.47-.27,0-.45.21-.45.51v.87h-.14v-.91c0-.29-.15-.47-.38-.47-.27,0-.45.21-.45.51v.87h-.14v-1.49h.13v.22c.12-.15.29-.24.49-.24.21,0,.38.11.46.31.1-.2.29-.31.52-.31.31,0,.51.24.51.59v.93ZM317.85,304.14h.02v-.87c0-.31-.18-.53-.45-.53-.23,0-.41.13-.49.35l-.03.09-.02-.09c-.06-.22-.22-.34-.43-.34s-.39.11-.47.3l-.05.11-.02-.39h0v1.37h.02v-.81c0-.34.21-.57.51-.57.27,0,.44.21.44.53v.85h.02v-.81c0-.34.21-.57.51-.57.26,0,.44.21.44.53v.85Z"/>
      </g>
      <g>
        <path class="cls-5" d="M321.28,303.45c0,.42-.3.74-.73.74-.29,0-.53-.16-.65-.4v.88h-.08v-1.94h.07l.02.37c.12-.24.36-.4.65-.4.42,0,.73.32.73.74ZM321.2,303.45c0-.38-.27-.66-.65-.66s-.65.28-.65.66.28.66.65.66.65-.28.65-.66Z"/>
        <path class="cls-5" d="M319.93,304.7h-.14v-2h.12v.3c.15-.2.38-.33.64-.33.44,0,.76.33.76.77s-.32.77-.76.77c-.26,0-.48-.12-.62-.32v.8ZM319.85,304.64h.02v-.98l.06.12c.12.24.35.38.62.38.4,0,.7-.3.7-.71s-.29-.71-.7-.71c-.28,0-.51.14-.63.39l-.05.11-.02-.47h0v1.88ZM320.55,304.14c-.39,0-.68-.3-.68-.69s.29-.69.68-.69.68.29.68.69-.28.69-.68.69ZM320.55,302.82c-.35,0-.62.27-.62.63s.27.63.62.63.62-.27.62-.63-.26-.63-.62-.63Z"/>
      </g>
      <g>
        <path class="cls-5" d="M323.78,304.09v.08h-.19c-.27,0-.43-.16-.43-.44v-.92h-.33v-.07h.33v-.42h.08v.42h.52v.07h-.52v.92c0,.23.13.36.35.36h.18Z"/>
        <path class="cls-5" d="M323.81,304.2h-.22c-.28,0-.46-.18-.46-.47v-.89h-.33v-.14h.33v-.42h.14v.42h.52v.14h-.52v.89c0,.21.11.33.32.33h.21v.14ZM322.87,302.78h.33v.95c0,.25.15.41.4.41h.16v-.02h-.15c-.24,0-.38-.15-.38-.39v-.95h.52s-.52-.01-.52-.01v-.42h-.02v.42h-.33Z"/>
      </g>
      <g>
        <path class="cls-5" d="M325.49,302.27h.12v.15h-.12v-.15ZM325.51,302.73h.08v1.43h-.08v-1.43Z"/>
        <path class="cls-5" d="M325.62,304.2h-.14v-1.49h.14v1.49ZM325.54,304.14h.02v-1.37h-.02v1.37ZM325.64,302.45h-.18v-.21h.18v.21ZM325.52,302.39h.06v-.09h-.06v.09Z"/>
      </g>
      <g>
        <path class="cls-5" d="M328.74,303.32v.85h-.08v-.83c0-.34-.19-.55-.49-.55s-.54.25-.54.55v.83h-.08v-1.43h.07l.02.33c.1-.21.31-.36.56-.36.35,0,.56.24.56.61Z"/>
        <path class="cls-5" d="M328.77,304.2h-.14v-.86c0-.32-.17-.52-.46-.52s-.51.24-.51.52v.86h-.14v-1.49h.13v.25c.13-.17.33-.28.55-.28.36,0,.59.25.59.64v.88ZM328.69,304.14h.02v-.82c0-.35-.21-.58-.53-.58-.23,0-.44.13-.53.34l-.05.11-.02-.42h0v1.37h.02v-.8c0-.31.26-.58.57-.58s.52.22.52.58v.8Z"/>
      </g>
      <g>
        <path class="cls-5" d="M331.96,303.48h-1.34c.01.37.28.63.63.63.25,0,.45-.13.57-.35h.09c-.14.28-.37.44-.66.44-.41,0-.72-.32-.72-.75s.31-.74.72-.74.7.32.7.73c0,.01,0,.02,0,.04ZM330.62,303.4h1.25c-.02-.36-.28-.61-.62-.61s-.61.26-.63.61Z"/>
        <path class="cls-5" d="M331.25,304.22c-.43,0-.75-.33-.75-.78s.32-.77.75-.77.73.33.73.76c0,.01,0,.03,0,.04v.03h-1.33c.03.33.27.57.6.57.24,0,.43-.12.54-.34v-.02h.16l-.02.04c-.14.29-.38.45-.69.45ZM331.25,302.74c-.39,0-.69.31-.69.71s.3.72.69.72c.27,0,.48-.13.61-.38h-.02c-.12.22-.34.35-.59.35-.37,0-.65-.28-.66-.66v-.03s1.34,0,1.34,0h0c0-.41-.29-.71-.67-.71ZM331.91,303.43h-1.32v-.03c.03-.37.31-.64.66-.64s.63.26.65.64v.03ZM330.66,303.37h1.19c-.03-.32-.27-.55-.59-.55s-.56.23-.6.55Z"/>
      </g>
      <g>
        <path class="cls-5" d="M333.63,303.78h.08c.02.21.19.34.46.34s.45-.13.45-.33c0-.25-.23-.29-.47-.33-.25-.04-.5-.09-.5-.37,0-.23.21-.38.51-.38s.5.15.51.4h-.08c-.01-.2-.17-.32-.43-.32s-.42.12-.42.3c0,.21.21.25.44.29.25.04.53.09.53.41,0,.25-.22.41-.54.41s-.52-.16-.55-.42Z"/>
        <path class="cls-5" d="M334.18,304.22c-.34,0-.55-.17-.58-.45v-.03s.14,0,.14,0v.03c.02.2.18.31.44.31s.42-.12.42-.3c0-.21-.18-.26-.44-.3-.25-.04-.53-.09-.53-.4,0-.25.22-.41.54-.41s.53.16.54.43v.03s-.14,0-.14,0v-.03c-.01-.19-.16-.29-.4-.29s-.39.11-.39.27c0,.18.16.22.41.26.24.04.56.09.56.44,0,.26-.23.44-.57.44ZM333.67,303.81c.04.22.22.36.51.36.31,0,.51-.15.51-.38,0-.3-.27-.34-.51-.38-.24-.04-.47-.08-.47-.32,0-.2.18-.33.45-.33s.43.12.46.32h.02c-.03-.21-.2-.34-.48-.34s-.48.14-.48.35c0,.26.23.3.48.34.23.04.49.08.49.36,0,.21-.19.36-.48.36-.27,0-.45-.13-.49-.34h-.02Z"/>
      </g>
      <g>
        <path class="cls-5" d="M336.4,303.78h.08c.02.21.19.34.46.34s.45-.13.45-.33c0-.25-.23-.29-.47-.33-.25-.04-.5-.09-.5-.37,0-.23.21-.38.51-.38s.5.15.51.4h-.08c-.01-.2-.17-.32-.43-.32s-.42.12-.42.3c0,.21.21.25.44.29.25.04.53.09.53.41,0,.25-.22.41-.54.41s-.52-.16-.55-.42Z"/>
        <path class="cls-5" d="M336.94,304.22c-.34,0-.55-.17-.58-.45v-.03s.14,0,.14,0v.03c.02.2.18.31.44.31s.42-.12.42-.3c0-.21-.18-.26-.44-.3-.25-.04-.53-.09-.53-.4,0-.25.22-.41.54-.41s.53.16.54.43v.03s-.14,0-.14,0v-.03c-.01-.19-.16-.29-.4-.29s-.39.11-.39.27c0,.18.16.22.41.26.24.04.56.09.56.44,0,.26-.23.44-.57.44ZM336.43,303.81c.04.22.22.36.51.36.31,0,.51-.15.51-.38,0-.3-.27-.34-.51-.38-.24-.04-.47-.08-.47-.32,0-.2.18-.33.45-.33s.43.12.46.32h.02c-.03-.21-.2-.34-.48-.34s-.48.14-.48.35c0,.26.23.3.48.34.23.04.49.08.49.36,0,.21-.19.36-.48.36-.27,0-.45-.13-.49-.34h-.02Z"/>
      </g>
      <g>
        <path class="cls-5" d="M342.11,302.81h-.51v1.35h-.08v-1.35h-.31v-.07h.31v-.11c0-.33.13-.46.46-.46h.13v.07h-.12c-.29,0-.39.1-.39.39v.11h.51v.07Z"/>
        <path class="cls-5" d="M341.63,304.2h-.14v-1.35h-.31v-.14h.31v-.08c0-.35.14-.49.49-.49h.16v.13h-.15c-.28,0-.36.08-.36.36v.08h.51v.14h-.51v1.35ZM341.54,304.14h.02v-1.35h.51s-.51-.01-.51-.01v-.14c0-.31.11-.42.42-.42h.09s-.1-.01-.1-.01c-.32,0-.43.11-.43.43v.14h-.31s.31.01.31.01v1.35Z"/>
      </g>
      <g>
        <path class="cls-5" d="M343.63,303.45c0-.43.32-.74.75-.74s.74.32.74.74-.32.74-.74.74-.75-.32-.75-.74ZM345.04,303.45c0-.38-.28-.66-.66-.66s-.66.28-.66.66.28.66.66.66.66-.28.66-.66Z"/>
        <path class="cls-5" d="M344.38,304.22c-.44,0-.78-.33-.78-.77s.33-.77.78-.77.78.33.78.77-.33.77-.78.77ZM344.38,302.74c-.41,0-.72.31-.72.71s.31.71.72.71.71-.31.71-.71-.31-.71-.71-.71ZM344.38,304.14c-.39,0-.69-.3-.69-.69s.3-.69.69-.69.69.3.69.69-.3.69-.69.69ZM344.38,302.82c-.36,0-.63.27-.63.63s.27.63.63.63.63-.27.63-.63-.27-.63-.63-.63Z"/>
      </g>
      <g>
        <path class="cls-5" d="M347.65,302.73v.08h-.13c-.3,0-.5.23-.5.55v.81h-.08v-1.43h.07v.32c.1-.2.28-.33.52-.33h.12Z"/>
        <path class="cls-5" d="M347.06,304.2h-.14v-1.49h.13v.25c.12-.16.29-.25.49-.25h.15v.14h-.16c-.28,0-.47.21-.47.52v.84ZM346.97,304.14h.02v-.78c0-.34.22-.58.53-.58h.1v-.02h-.09c-.22,0-.39.11-.48.31l-.05.12-.02-.42h0v1.37Z"/>
      </g>
      <g>
        <path class="cls-5" d="M352.59,302.73l-.73,1.56c-.14.3-.26.38-.49.38h-.11v-.08h.11c.2,0,.29-.06.42-.32l.09-.18-.67-1.35h.09l.62,1.26.59-1.26h.09Z"/>
        <path class="cls-5" d="M351.37,304.7h-.14v-.14h.14c.17,0,.27-.04.39-.31l.08-.17-.68-1.38h.16l.6,1.22.57-1.22h.16l-.02.04-.73,1.56c-.14.3-.27.4-.52.4ZM351.28,304.64h.08c.23,0,.33-.08.46-.36l.71-1.51h-.02l-.6,1.3-.64-1.3h-.03l.65,1.32-.09.2c-.12.26-.23.34-.45.34h-.08v.02Z"/>
      </g>
      <g>
        <path class="cls-5" d="M354.17,303.45c0-.43.32-.74.75-.74s.74.32.74.74-.32.74-.74.74-.75-.32-.75-.74ZM355.57,303.45c0-.38-.28-.66-.66-.66s-.66.28-.66.66.28.66.66.66.66-.28.66-.66Z"/>
        <path class="cls-5" d="M354.91,304.22c-.44,0-.78-.33-.78-.77s.33-.77.78-.77.78.33.78.77-.33.77-.78.77ZM354.91,302.74c-.41,0-.72.31-.72.71s.31.71.72.71.71-.31.71-.71-.31-.71-.71-.71ZM354.91,304.14c-.39,0-.69-.3-.69-.69s.3-.69.69-.69.69.3.69.69-.3.69-.69.69ZM354.91,302.82c-.36,0-.63.27-.63.63s.27.63.63.63.63-.27.63-.63-.27-.63-.63-.63Z"/>
      </g>
      <g>
        <path class="cls-5" d="M357.45,303.57v-.83h.08v.82c0,.34.2.56.52.56s.52-.21.52-.56v-.82h.08v.83c0,.38-.23.63-.6.63s-.6-.25-.6-.63Z"/>
        <path class="cls-5" d="M358.05,304.22c-.38,0-.63-.26-.63-.66v-.86h.14v.85c0,.32.19.53.49.53s.49-.2.49-.53v-.85h.14v.86c0,.4-.25.66-.63.66ZM357.48,302.76v.8c0,.37.22.6.57.6s.57-.23.57-.6v-.8h-.02v.79c0,.36-.21.59-.55.59s-.55-.22-.55-.59v-.79h-.02Z"/>
      </g>
    </g>
    <g>
      <path class="cls-5" d="M303.7,294.41c.35,0,.62.09.83.26.21.18.31.41.31.71h1.2c0-.47-.22-.86-.67-1.18-.45-.33-1.01-.49-1.67-.49s-1.22.16-1.67.49c-.44.32-.67.71-.67,1.18,0,.38.34.76,1.03,1.16.4.24.83.43,1.26.58.79.3,1.19.62,1.19.97,0,.3-.09.53-.28.7-.19.18-.48.27-.85.27s-.63-.07-.83-.22c-.21-.16-.31-.39-.31-.68h-1.2c0,.46.22.85.67,1.15.45.31,1,.46,1.67.46s1.22-.16,1.67-.49c.44-.32.67-.72.67-1.18,0-.38-.35-.78-1.05-1.18-.4-.23-.82-.42-1.24-.56-.26-.08-.51-.2-.74-.36-.3-.21-.45-.41-.45-.61,0-.3.09-.53.28-.7.2-.19.49-.28.86-.28Z"/>
      <path class="cls-5" d="M312.3,297.58c-.16.44-.4.8-.71,1.06-.33.27-.71.41-1.14.41-.5,0-.91-.19-1.24-.57-.3-.34-.51-.81-.64-1.4h5.04c.08-.08.11-.19.11-.33,0-.83-.32-1.55-.96-2.14-.64-.59-1.41-.89-2.32-.89s-1.67.3-2.32.89c-.64.59-.96,1.31-.96,2.14s.32,1.55.96,2.14c.64.59,1.41.89,2.32.89.74,0,1.4-.21,1.98-.62.57-.4.96-.93,1.16-1.57h-1.29ZM309.21,295c.32-.38.73-.57,1.24-.57s.96.19,1.33.57c.36.37.57.84.65,1.4h-3.76c.08-.59.26-1.06.55-1.4Z"/>
      <path class="cls-5" d="M327.36,296.74c0,.69-.13,1.23-.38,1.64-.28.45-.69.67-1.24.67s-.96-.22-1.24-.67c-.25-.4-.37-.95-.37-1.64v-3.03h-1.19v3.03c0,.87.24,1.58.72,2.14.51.59,1.2.89,2.08.89.63,0,1.17-.16,1.62-.48v.48h1.75v-.66h-.57v-4.73h.57v-.66h-1.75v3.03Z"/>
      <path class="cls-5" d="M331.92,293.72h-1.65v.67h.56v4.71h-.56v.66h1.65v-3.03c0-.64.19-1.19.57-1.63.38-.45.86-.67,1.43-.67l.09-.72c-.79,0-1.49.23-2.09.7v-.69Z"/>
      <path class="cls-5" d="M337.46,294.44c.89,0,1.5.49,1.85,1.47h1.29c-.2-.64-.58-1.16-1.16-1.57-.58-.41-1.24-.62-1.98-.62-.9,0-1.67.3-2.31.89-.64.59-.96,1.3-.96,2.14s.32,1.55.96,2.14c.64.59,1.41.89,2.31.89.74,0,1.4-.21,1.98-.62.57-.4.96-.93,1.16-1.56h-1.29c-.35.98-.96,1.46-1.85,1.46-.57,0-1.03-.22-1.38-.67-.35-.44-.52-.98-.52-1.63s.17-1.2.52-1.63c.36-.45.82-.67,1.38-.67Z"/>
      <path class="cls-5" d="M345.28,293.71c-.69,0-1.29.19-1.81.56v-2.61h-1.66v.66h.56v6.79h-.56v.66h1.66v-3.03c0-.66.16-1.21.47-1.64.33-.45.78-.67,1.34-.67s1.01.22,1.34.67c.32.43.48.98.48,1.64v3.03h1.18v-3.03c0-.85-.27-1.57-.82-2.14-.56-.59-1.29-.89-2.18-.89Z"/>
      <path class="cls-5" d="M350.47,291.69c-.16,0-.3.05-.41.16-.12.1-.17.23-.17.38s.06.28.17.38c.12.11.25.16.41.16s.3-.05.42-.16c.11-.1.17-.23.17-.38s-.06-.28-.17-.38c-.12-.11-.26-.16-.42-.16Z"/>
      <polygon class="cls-5" points="349.42 294.39 349.98 294.39 349.98 299.1 349.42 299.1 349.42 299.76 351.06 299.76 351.06 293.72 349.42 293.72 349.42 294.39"/>
      <path class="cls-5" d="M357.87,294.6c-.57-.59-1.29-.89-2.17-.89-.69,0-1.3.19-1.81.56v-.56h-1.65v.66h.57v4.73h-.57v.66h1.65v-3.03c0-.66.16-1.2.47-1.63.33-.45.78-.67,1.34-.67s1.01.22,1.34.67c.31.43.47.97.47,1.63v3.03h1.18v-3.03c0-.86-.27-1.57-.82-2.14Z"/>
      <path class="cls-5" d="M323,299.21l-1.74-1.34v-3.49h.56v-.67h-1.65v.7c-.14-.11-.29-.21-.45-.29l1.22-2.16-1.7,1.94c-.35-.12-.73-.19-1.13-.19l-.36-1.83-.06,1.85c-.45.05-.87.17-1.25.38l-2.98-2.91,2.18,3.52c-.55.57-.83,1.23-.83,2.01,0,.58.16,1.1.46,1.56l-1.94,1.88,2.14-1.61c.09.1.18.2.29.3.63.59,1.4.88,2.29.88l.06,1.81.17-1.82c.7-.04,1.32-.27,1.87-.69v.7h1.65v-.66h-.56v-.68l1.74.79ZM319.57,298.37c-.34.37-.74.59-1.19.65l.11-1.22h-.48s.04,1.24.04,1.24c-.56-.01-1.03-.23-1.43-.67-.12-.13-.21-.27-.3-.41l1.41-1.06-.45-.53-1.15,1.12c-.07-.24-.11-.49-.11-.75,0-.64.2-1.18.61-1.63.31-.33.66-.54,1.06-.63l-.02.46.69-.05-.09-.44c.5.04.93.26,1.3.66.4.45.61.99.61,1.63s-.2,1.18-.61,1.63Z"/>
    </g>
  </g>
  <g>
    <polygon class="cls-5" points="106.57 599.22 106.57 606.88 110.63 606.88 110.63 606.76 106.69 606.76 106.69 599.34 137.14 599.34 137.14 606.76 133.19 606.76 133.19 606.88 137.26 606.88 137.26 599.22 106.57 599.22"/>
    <path class="cls-5" d="M112.49,606.18c-.34,0-.58.24-.58.58s.24.58.58.58.58-.24.58-.58-.24-.58-.58-.58ZM112.49,607.24c-.28,0-.49-.21-.49-.49s.21-.49.49-.49.49.21.49.49-.21.49-.49.49Z"/>
    <path class="cls-5" d="M114.07,606.94c0,.19-.11.31-.29.31s-.29-.12-.29-.31v-.5h-.09v.5c0,.23.15.39.37.39s.37-.15.37-.39v-.5h-.09v.5Z"/>
    <path class="cls-5" d="M114.64,606.58v-.14h-.08v.87h.09v-.49c0-.18.11-.3.27-.3h.09v-.08h-.09c-.12,0-.22.05-.28.14Z"/>
    <path class="cls-5" d="M116.22,606.42c-.25,0-.44.19-.44.45s.19.45.44.45c.18,0,.32-.09.4-.27v-.03s-.08,0-.08,0h0c-.07.14-.18.21-.32.21-.19,0-.34-.14-.35-.33h.78v-.02s0-.02,0-.02c0-.26-.18-.45-.43-.45ZM115.87,606.83c.02-.19.17-.32.35-.32s.32.13.34.32h-.69Z"/>
    <path class="cls-5" d="M117.92,606.42c-.13,0-.24.07-.3.18-.05-.11-.14-.18-.27-.18-.12,0-.22.05-.28.14v-.13h-.08v.87h.09v-.51c0-.18.11-.3.26-.3.14,0,.22.1.22.27v.54h.09v-.51c0-.18.11-.3.27-.3.13,0,.22.11.22.27v.54h.09v-.55c0-.21-.12-.34-.3-.34Z"/>
    <path class="cls-5" d="M119.08,606.42c-.15,0-.29.07-.37.19v-.17h-.08v1.17h.09v-.46c.08.12.21.18.36.18.26,0,.44-.19.44-.45s-.19-.45-.44-.45ZM119.08,607.25c-.21,0-.36-.16-.36-.37s.16-.37.36-.37.36.16.36.37-.15.37-.36.37Z"/>
    <path class="cls-5" d="M120,607.04v-.52h.3v-.08h-.3v-.25h-.09v.25h-.19v.08h.19v.52c0,.17.1.27.27.27h.13v-.08h-.12c-.12,0-.19-.07-.19-.19Z"/>
    <rect class="cls-5" x="120.6" y="606.17" width=".11" height=".12"/>
    <rect class="cls-5" x="120.61" y="606.44" width=".09" height=".87"/>
    <path class="cls-5" d="M121.51,606.42c-.13,0-.24.06-.31.16v-.15h-.08v.87h.09v-.51c0-.16.14-.3.3-.3s.27.11.27.3v.51h.09v-.51c0-.23-.14-.38-.35-.38Z"/>
    <path class="cls-5" d="M122.63,606.42c-.25,0-.44.19-.44.45s.19.45.44.45c.18,0,.32-.09.4-.27v-.03s-.08,0-.08,0h0c-.07.14-.18.21-.32.21-.19,0-.34-.14-.35-.33h.78v-.02s0-.01,0-.02c0-.26-.18-.45-.43-.45ZM122.28,606.83c.02-.19.17-.32.35-.32s.32.13.34.32h-.69Z"/>
    <path class="cls-5" d="M123.67,606.81c-.15-.03-.24-.05-.24-.15,0-.1.09-.16.23-.16s.23.06.23.17v.02h.09v-.02c0-.16-.13-.25-.32-.25s-.32.1-.32.24c0,.18.16.21.31.23.15.03.26.05.26.18,0,.11-.1.17-.25.17s-.24-.07-.25-.18v-.02h-.09v.02c.02.16.14.26.34.26s.33-.1.33-.26c0-.2-.19-.24-.33-.26Z"/>
    <path class="cls-5" d="M124.61,606.81c-.15-.03-.24-.05-.24-.15,0-.1.09-.16.23-.16s.23.06.23.17v.02h.09v-.02c0-.16-.13-.25-.32-.25s-.32.1-.32.24c0,.18.16.21.31.23.15.03.26.05.26.18,0,.11-.1.17-.25.17s-.24-.07-.25-.18v-.02h-.09v.02c.02.16.14.26.34.26s.33-.1.33-.26c0-.2-.19-.24-.33-.26Z"/>
    <path class="cls-5" d="M125.99,606.39c0-.16.05-.21.21-.21h.09v-.08h-.09c-.21,0-.29.08-.29.29v.05h-.18v.08h.18v.79h.09v-.79h.3v-.08h-.3v-.05Z"/>
    <path class="cls-5" d="M126.92,606.42c-.26,0-.45.19-.45.45s.2.45.45.45.45-.19.45-.45-.2-.45-.45-.45ZM126.92,607.25c-.21,0-.37-.16-.37-.37s.15-.37.37-.37.37.16.37.37-.16.37-.37.37Z"/>
    <path class="cls-5" d="M127.81,606.58v-.14h-.08v.87h.09v-.49c0-.18.11-.3.27-.3h.09v-.08h-.09c-.12,0-.22.05-.28.14Z"/>
    <path class="cls-5" d="M129.3,607.15l-.35-.71h-.1l.4.81-.05.1c-.07.15-.13.18-.23.18h-.08v.08h.08c.15,0,.22-.06.3-.23l.43-.91v-.03s-.08,0-.08,0l-.33.71Z"/>
    <path class="cls-5" d="M130.38,606.42c-.26,0-.45.19-.45.45s.2.45.45.45.45-.19.45-.45-.2-.45-.45-.45ZM130.38,607.25c-.21,0-.37-.16-.37-.37s.15-.37.37-.37.37.16.37.37-.16.37-.37.37Z"/>
    <path class="cls-5" d="M131.82,606.94c0,.19-.11.31-.29.31s-.28-.12-.28-.31v-.5h-.09v.5c0,.23.15.39.37.39s.37-.15.37-.39v-.5h-.09v.5Z"/>
    <g>
      <path class="cls-5" d="M111.1,603.69c0-.17-.16-.35-.47-.53-.18-.11-.37-.19-.56-.25-.12-.03-.23-.09-.33-.16-.14-.09-.2-.18-.2-.28,0-.13.04-.24.13-.31.09-.08.22-.13.39-.13.16,0,.28.04.37.12.09.08.14.19.14.32h.54c0-.21-.1-.39-.3-.53-.2-.15-.46-.22-.75-.22s-.55.07-.75.22c-.2.14-.3.32-.3.53,0,.17.15.34.46.52.18.11.37.19.57.26.36.13.53.28.53.44,0,.13-.04.24-.13.31-.09.08-.22.12-.38.12s-.29-.03-.37-.1c-.09-.07-.14-.17-.14-.31h-.54c0,.21.1.38.3.52.2.14.45.21.75.21s.55-.07.75-.22c.2-.15.3-.32.3-.53Z"/>
      <path class="cls-5" d="M113.08,604.44c.33,0,.63-.09.89-.28.26-.18.43-.42.52-.71h-.58c-.07.2-.18.36-.32.48-.15.12-.32.18-.52.18-.22,0-.41-.09-.56-.26-.13-.15-.23-.36-.29-.63h2.27s.05-.09.05-.15c0-.38-.14-.7-.43-.97-.29-.27-.64-.4-1.04-.4s-.76.13-1.04.4c-.29.27-.43.59-.43.97s.14.7.43.97c.29.27.64.4,1.04.4ZM112.53,602.29c.14-.17.33-.26.56-.26s.43.09.6.26c.16.17.26.38.29.63h-1.7c.03-.26.12-.48.25-.63Z"/>
      <path class="cls-5" d="M119.98,604.44c.28,0,.53-.07.73-.21v.21h.79v-.3h-.25v-2.13h.25v-.3h-.79v1.36c0,.31-.06.56-.17.74-.13.2-.31.3-.56.3s-.43-.1-.56-.3c-.11-.18-.17-.43-.17-.74v-1.36h-.53v1.36c0,.39.11.71.33.97.23.27.54.4.94.4Z"/>
      <path class="cls-5" d="M122.77,603.07c0-.29.09-.53.26-.73.17-.2.39-.3.65-.3l.04-.33c-.36,0-.67.11-.94.32v-.31h-.74v.3h.25v2.12h-.25v.3h.74v-1.36Z"/>
      <path class="cls-5" d="M125.27,604.44c.33,0,.63-.09.89-.28.26-.18.43-.42.52-.71h-.58c-.16.44-.43.66-.83.66-.25,0-.46-.1-.62-.3-.16-.2-.23-.44-.23-.73s.08-.54.23-.74c.16-.2.37-.3.62-.3.4,0,.68.22.83.66h.58c-.09-.29-.26-.52-.52-.71-.26-.18-.56-.28-.89-.28-.41,0-.75.13-1.04.4-.29.27-.43.59-.43.96s.14.7.43.96c.29.27.64.4,1.04.4Z"/>
      <path class="cls-5" d="M127.98,603.07c0-.3.07-.54.21-.74.15-.2.35-.3.6-.3s.46.1.6.3c.14.19.22.44.22.74v1.37h.53v-1.37c0-.39-.12-.71-.37-.97-.25-.27-.58-.4-.98-.4-.31,0-.58.08-.81.25v-1.18h-.75v.3h.25v3.06h-.25v.3h.75v-1.37Z"/>
      <path class="cls-5" d="M131.13,601.29c.07,0,.14-.02.19-.07.05-.05.08-.1.08-.17s-.03-.13-.08-.17c-.05-.05-.12-.07-.19-.07s-.14.02-.19.07c-.05.05-.08.1-.08.17s.03.13.08.17c.05.05.11.07.19.07Z"/>
      <polygon class="cls-5" points="131.4 601.71 130.66 601.71 130.66 602.01 130.91 602.01 130.91 604.14 130.66 604.14 130.66 604.44 131.4 604.44 131.4 601.71"/>
      <path class="cls-5" d="M132.67,603.07c0-.3.07-.54.21-.74.15-.2.35-.3.6-.3s.45.1.6.3c.14.19.21.44.21.74v1.36h.53v-1.36c0-.39-.12-.71-.37-.97-.25-.27-.58-.4-.98-.4-.31,0-.58.08-.82.25v-.25h-.75v.3h.25v2.13h-.25v.3h.75v-1.36Z"/>
      <path class="cls-5" d="M117.47,604.12v.32h.75v-.3h-.25v-.31l.78.36-.78-.6v-1.57h.25v-.3h-.75v.32c-.06-.05-.13-.09-.2-.13l.55-.97-.77.88c-.16-.06-.33-.09-.51-.09l-.16-.83-.03.83c-.2.02-.39.08-.56.17l-1.35-1.31.98,1.59c-.25.26-.37.56-.37.9,0,.26.07.5.21.7l-.87.85.97-.73s.08.09.13.14c.28.26.63.4,1.03.4l.03.82.08-.82c.31-.02.6-.12.84-.31ZM116.49,603.55l.02.56c-.25,0-.47-.11-.65-.3-.05-.06-.1-.12-.13-.19l.63-.48-.2-.24-.52.51c-.03-.11-.05-.22-.05-.34,0-.29.09-.53.27-.73.14-.15.3-.24.48-.28v.21s.31-.02.31-.02l-.04-.2c.23.02.42.12.59.3.18.2.27.45.27.73s-.09.53-.27.74c-.15.17-.33.27-.54.29l.05-.55h-.22Z"/>
    </g>
  </g>
  <g>
    <path class="cls-5" d="M35.68,608.76c.15.23.23.5.23.81s-.08.6-.25.83c-.17.23-.4.34-.71.34-.35,0-.6-.12-.74-.35s-.21-.51-.21-.81c0-.28.07-.54.21-.78s.39-.37.75-.37c.34,0,.59.11.73.34ZM35.38,609.57c0-.27-.04-.47-.12-.6s-.18-.2-.32-.2c-.14,0-.24.07-.32.21-.08.14-.11.33-.11.58,0,.26.04.46.12.6s.18.2.31.2.24-.07.32-.2.12-.33.12-.6Z"/>
    <polygon class="cls-5" points="35.21 595.42 33.2 597.89 32.28 599.12 32.28 603.64 33.2 604.87 35.21 607.34 33.01 607.34 31.19 604.87 29.36 607.34 27.17 607.34 29.18 604.87 30.09 603.64 30.09 599.12 29.18 597.89 27.17 595.42 29.36 595.42 31.19 597.89 33.01 595.42 35.21 595.42"/>
    <polygon class="cls-5" points="33.78 608.45 33.78 608.81 33.15 608.81 33.15 610.71 32.62 610.71 32.62 608.81 32 608.81 32 608.45 33.78 608.45"/>
    <path class="cls-5" d="M31.58,608.76c.15.23.23.5.23.81s-.08.6-.25.83c-.16.23-.4.34-.71.34-.35,0-.6-.12-.75-.35-.14-.24-.21-.51-.21-.81,0-.28.07-.54.21-.78.14-.25.39-.37.75-.37.34,0,.58.11.73.34ZM31.28,609.57c0-.27-.04-.47-.12-.6s-.18-.2-.31-.2c-.14,0-.25.07-.32.21-.08.14-.11.33-.11.58,0,.26.04.46.12.6s.19.2.31.2.23-.07.31-.2.12-.33.12-.6Z"/>
    <polygon class="cls-5" points="29.59 608.45 29.59 610.71 29.07 610.71 29.07 609.73 28.7 610.71 28.32 610.71 27.96 609.73 27.96 610.71 27.43 610.71 27.43 608.45 27.99 608.45 28.51 609.91 29.04 608.45 29.59 608.45"/>
    <path class="cls-5" d="M26.29,608.44l.93,2.27h-.56l-.17-.4h-.78l-.17.4h-.55l.93-2.27h.36ZM26.36,609.88l-.25-.67-.25.67h.49Z"/>
    <polygon class="cls-5" points="27.17 595.42 25.16 597.89 24.24 599.12 24.24 603.64 25.16 604.87 27.17 607.34 24.98 607.34 23.15 604.87 21.32 607.34 19.13 607.34 21.14 604.87 22.05 603.64 22.05 599.12 21.14 597.89 19.13 595.42 21.32 595.42 23.15 597.89 24.98 595.42 27.17 595.42"/>
    <polygon class="cls-5" points="24.8 608.45 24.8 610.71 24.28 610.71 24.28 609.73 23.91 610.71 23.54 610.71 23.17 609.73 23.17 610.71 22.64 610.71 22.64 608.45 23.2 608.45 23.72 609.91 24.25 608.45 24.8 608.45"/>
    <path class="cls-5" d="M21.51,608.44l.93,2.27h-.56l-.17-.4h-.78l-.17.4h-.56l.93-2.27h.36ZM21.57,609.88l-.25-.67-.25.67h.49Z"/>
    <polygon class="cls-5" points="20.15 608.45 19.47 609.75 19.47 610.71 18.94 610.71 18.94 609.75 18.25 608.45 18.8 608.45 19.2 609.27 19.61 608.45 20.15 608.45"/>
  </g>
  <g>
    <g>
      <path class="cls-12" d="M731.7,818.6l-21.34,4.4s-8.64-68.05-12.57-77.19c-.92-2.13-2.13-5.88-3.43-10.7,2.35-21.13-4.25-61.4-4.25-61.4-.93-4.01-3.63-13.2-7.1-24.49,15.2-14.4,30.54-3.02,30.54-3.02.4,8.7,1,16.41,1.88,22.46,2.22,15.35,12.73,60,13.06,61.4h0c.63,33.85,3.21,88.54,3.21,88.54Z"/>
      <path class="cls-7" d="M720.02,661.32s9.26,25.12,8.45,48.41c-.16,4.67-.13,11.84.02,20.33-.33-1.4-10.84-46.05-13.06-61.4-.88-6.05-1.48-13.76-1.88-22.46-.43-9.49-.64-20.17-.72-31.18l7.77,6.86c.12,9.03.05,21.95-.58,39.44Z"/>
      <path class="cls-6" d="M720.6,621.88l-7.77-6.86c-.04-4.9-.05-9.87-.05-14.83,0-26.28-16.62-62.66-16.62-62.66-4.92-24.76-2.65-60.64-2.65-60.64,4.19-.86,6.73-1.45,6.73-1.45l7.43,1.37s-8.11,48.34-3.89,58.4c.02,0,8.7,28.96,11.27,37.17,2.36,7.54,4.91,32.55,4.91,32.55,0,0,.49,5.15.64,16.95Z"/>
      <path class="cls-10" d="M712.83,615.02c.08,11.01.29,21.69.72,31.18,0,0-15.34-11.38-30.54,3.02-2.93-9.53-6.41-20.55-9.84-31.2-7.37-22.87-14.51-44.05-15.51-45.19-1.67-1.89-2.35-1.28-2.46-1.01-.11-.27-.79-.88-2.46,1.01-1,1.14-8.15,22.32-15.51,45.19-3.44,10.65-6.91,21.67-9.85,31.2-14.95-14.16-30.04-3.38-30.53-3.03.43-9.49.64-20.17.72-31.17.04-4.9.05-9.87.05-14.83,0-26.28,16.62-62.66,16.62-62.66,4.91-24.76,2.65-60.64,2.65-60.64,8.47,1.75,23.66,4.61,38.18,5.98h.26c14.52-1.37,29.71-4.23,38.18-5.98,0,0-2.27,35.88,2.65,60.64,0,0,16.62,36.38,16.62,62.66,0,4.96,0,9.93.05,14.83Z"/>
      <path class="cls-13" d="M690.11,673.71s6.6,40.27,4.25,61.4c-4.28-15.84-9.49-43.13-8.16-61.46,3.64,2.7,3.91.06,3.91.06Z"/>
      <path class="cls-3" d="M690.11,673.71s-.27,2.64-3.91-.06l-23.78-67.01,10.75,11.38c3.43,10.65,6.91,21.67,9.84,31.2,3.47,11.29,6.17,20.48,7.1,24.49Z"/>
      <path class="cls-8" d="M673.17,618.02l-10.75-11.38-2.29-6.45-4.93-14.06-4.93,14.06-2.29,6.45-10.75,11.38c7.36-22.87,14.51-44.05,15.51-45.19,1.67-1.89,2.35-1.28,2.46-1.01-.02.06-.02.1,0,.1s.02-.04,0-.1c.11-.27.79-.88,2.46,1.01,1,1.14,8.14,22.32,15.51,45.19Z"/>
      <path class="cls-3" d="M627.38,649.22c2.94-9.53,6.41-20.55,9.85-31.2l10.75-11.38-23.78,67.01c-3.65,2.7-3.91.06-3.91.06.93-4.01,3.63-13.2,7.09-24.49Z"/>
      <path class="cls-13" d="M624.2,673.65c1.33,18.33-3.88,45.62-8.16,61.46-2.35-21.13,4.25-61.4,4.25-61.4,0,0,.26,2.64,3.91-.06Z"/>
      <path class="cls-12" d="M627.38,649.22c-3.46,11.29-6.16,20.48-7.09,24.49,0,0-6.6,40.27-4.25,61.4-1.3,4.82-2.51,8.57-3.43,10.7-3.94,9.14-12.57,77.19-12.57,77.19l-21.34-4.4s2.58-54.69,3.21-88.53h0c.33-1.41,10.83-46.06,13.06-61.41.89-6.06,1.48-13.76,1.88-22.47.49-.35,15.58-11.13,30.53,3.03Z"/>
      <path class="cls-6" d="M616.89,476.89s2.26,35.88-2.65,60.64c0,0-16.62,36.38-16.62,62.66,0,4.96-.01,9.93-.05,14.83l-7.77,6.86c.15-11.8.64-16.95.64-16.95,0,0,2.55-25.01,4.91-32.55,2.57-8.21,11.25-37.17,11.27-37.17,4.22-10.06-3.89-58.4-3.89-58.4l7.43-1.37s2.54.59,6.73,1.45Z"/>
      <path class="cls-7" d="M596.85,646.19c-.4,8.71-.99,16.41-1.88,22.47-2.23,15.35-12.73,60-13.06,61.4.15-8.49.18-15.66.02-20.33-.81-23.29,8.45-48.41,8.45-48.41-.63-17.49-.7-30.41-.58-39.44l7.77-6.86c-.08,11-.29,21.68-.72,31.17Z"/>
    </g>
    <g>
      <path class="cls-4" d="M581.91,730.07c-.63,33.84-3.21,88.53-3.21,88.53l21.34,4.4s8.63-68.05,12.57-77.19c.92-2.13,2.13-5.88,3.43-10.7,4.28-15.84,9.49-43.13,8.16-61.46l23.78-67.01,2.29-6.45"/>
      <path class="cls-4" d="M655.07,482.87c-14.52-1.37-29.71-4.23-38.18-5.98-4.19-.86-6.73-1.45-6.73-1.45l-7.43,1.37s8.11,48.34,3.89,58.4c-.02,0-8.7,28.96-11.27,37.17-2.36,7.54-4.91,32.55-4.91,32.55,0,0-.49,5.15-.64,16.95-.12,9.03-.05,21.95.58,39.44,0,0-9.26,25.12-8.45,48.41.16,4.67.13,11.84-.02,20.33"/>
      <line class="cls-4" x1="650.27" y1="600.19" x2="655.2" y2="586.13"/>
      <path class="cls-4" d="M616.89,476.89s2.26,35.88-2.65,60.64c0,0-16.62,36.38-16.62,62.66,0,4.96-.01,9.93-.05,14.83-.08,11-.29,21.68-.72,31.17-.4,8.71-.99,16.41-1.88,22.47-2.23,15.35-12.73,60-13.06,61.4h0s-.01.03-.01.03"/>
      <path class="cls-4" d="M655.2,571.92s.02-.04,0-.1c-.11-.27-.79-.88-2.46,1.01-1,1.14-8.15,22.32-15.51,45.19-3.44,10.65-6.91,21.67-9.85,31.2-3.46,11.29-6.16,20.48-7.09,24.49,0,0-6.6,40.27-4.25,61.4"/>
      <line class="cls-4" x1="637.23" y1="618.02" x2="647.98" y2="606.64"/>
      <line class="cls-4" x1="597.57" y1="615.02" x2="589.8" y2="621.88"/>
      <path class="cls-4" d="M596.84,646.2h.01c.49-.36,15.58-11.14,30.53,3.02h.01"/>
      <path class="cls-4" d="M620.29,673.71s.26,2.64,3.91-.06"/>
      <path class="cls-4" d="M728.49,730.07c.63,33.84,3.21,88.53,3.21,88.53l-21.34,4.4s-8.64-68.05-12.57-77.19c-.92-2.13-2.13-5.88-3.43-10.7-4.28-15.84-9.49-43.13-8.16-61.46l-23.78-67.01-2.29-6.45"/>
      <path class="cls-4" d="M655.33,482.87c14.52-1.37,29.71-4.23,38.18-5.98,4.19-.86,6.73-1.45,6.73-1.45l7.43,1.37s-8.11,48.34-3.89,58.4c.02,0,8.7,28.96,11.27,37.17,2.36,7.54,4.91,32.55,4.91,32.55,0,0,.49,5.15.64,16.95.12,9.03.05,21.95-.58,39.44,0,0,9.26,25.12,8.45,48.41-.16,4.67-.13,11.84.02,20.33"/>
      <line class="cls-4" x1="660.13" y1="600.19" x2="655.2" y2="586.13"/>
      <path class="cls-4" d="M693.51,476.89s-2.27,35.88,2.65,60.64c0,0,16.62,36.38,16.62,62.66,0,4.96,0,9.93.05,14.83.08,11.01.29,21.69.72,31.18.4,8.7,1,16.41,1.88,22.46,2.22,15.35,12.73,60,13.06,61.4h0s.01.03.01.03"/>
      <path class="cls-4" d="M655.2,571.92s-.02-.04,0-.1c.11-.27.79-.88,2.46,1.01,1,1.14,8.14,22.32,15.51,45.19,3.43,10.65,6.91,21.67,9.84,31.2,3.47,11.29,6.17,20.48,7.1,24.49,0,0,6.6,40.27,4.25,61.4"/>
      <line class="cls-4" x1="673.17" y1="618.02" x2="662.42" y2="606.64"/>
      <line class="cls-4" x1="712.83" y1="615.02" x2="720.6" y2="621.88"/>
      <path class="cls-4" d="M713.55,646.2s-15.34-11.38-30.54,3.02"/>
      <path class="cls-4" d="M690.11,673.71s-.27,2.64-3.91-.06"/>
    </g>
  </g>
  <g>
    <g>
      <path class="cls-6" d="M953.34,762.1c-.21-1.48-7.01-49.22-7.97-64.6-1.65-26.67-2.01-23.85-2.01-23.85-3.21-16.9-9.27-24.43-9.27-24.43,10.74-43.7,3.69-87.7-.51-102.83-4.45-16,2.29-67.65,2.29-67.65,9.55-1.75,16.23-3.3,16.23-3.3l7.43,1.37s-8.11,48.34-3.89,58.4c.02,0,8.7,28.96,11.27,37.17,2.36,7.54,4.91,32.55,4.91,32.55,0,0,1.51,16.03.06,56.39,0,0,4.53,33.16,4.93,60.18.34,23.5,4.58,51.53,4.91,53.64.89,23.36,1.84,43.46,1.84,43.46l-21.34,4.4s-4.8-37.87-8.88-60.9Z"/>
      <path class="cls-7" d="M971.88,661.32s9.26,25.12,8.46,48.41c-.42,12,.45,40.55,1.38,65.41-.33-2.11-4.57-30.14-4.91-53.64-.4-27.02-4.93-60.18-4.93-60.18Z"/>
      <path class="cls-13" d="M945.37,697.5c.96,15.38,7.76,63.12,7.97,64.6-1.39-7.84-2.69-13.97-3.69-16.29-3.94-9.13-13.32-48.26-11.59-72.16l-6-16.9c.74-2.5,1.41-5.01,2.03-7.53,0,0,6.06,7.53,9.27,24.43,0,0,.36-2.82,2.01,23.85Z"/>
      <path class="cls-3" d="M933.58,546.39c4.2,15.13,11.25,59.13.51,102.83-.62,2.52-1.29,5.03-2.03,7.53l-20.07-56.56-4.93-14.06-.13-103.26h.26c10.06-.95,20.44-2.61,28.68-4.13,0,0-6.74,51.65-2.29,67.65Z"/>
      <path class="cls-3" d="M906.93,482.87l.13,103.26-4.93,14.06-20.07,56.56c-.74-2.5-1.41-5.01-2.03-7.53-10.74-43.7-3.69-87.7.51-102.83,4.45-16-2.28-67.65-2.28-67.65,8.24,1.52,18.62,3.18,28.67,4.13Z"/>
      <path class="cls-13" d="M882.06,656.75l-6,16.9c1.73,23.9-7.65,63.03-11.59,72.16-.99,2.31-2.29,8.39-3.67,16.19.41-2.89,7-49.37,7.95-64.5,1.65-26.67,2.01-23.85,2.01-23.85,3.21-16.9,9.27-24.43,9.27-24.43.62,2.52,1.29,5.03,2.03,7.53Z"/>
      <path class="cls-6" d="M878.26,478.74s6.73,51.65,2.28,67.65c-4.2,15.13-11.25,59.13-.51,102.83,0,0-6.06,7.53-9.27,24.43,0,0-.36-2.82-2.01,23.85-.95,15.13-7.54,61.61-7.95,64.5v.02s-.02.08-.02.12c-4.08,23.03-8.88,60.86-8.88,60.86l-21.34-4.4s.94-20.02,1.83-43.33c0,0,0-.03.01-.08.27-1.75,4.57-30.01,4.91-53.69.4-27.02,4.93-60.18,4.93-60.18-1.45-40.36.06-56.39.06-56.39,0,0,2.55-25.01,4.91-32.55,2.57-8.21,11.25-37.17,11.27-37.17,4.22-10.06-3.89-58.4-3.89-58.4l7.43-1.37s6.69,1.55,16.24,3.3Z"/>
      <path class="cls-11" d="M860.78,762.14s0-.08.02-.12c-.01.08-.02.12-.02.12Z"/>
      <path class="cls-7" d="M842.24,661.32s-4.53,33.16-4.93,60.18c-.34,23.68-4.64,51.94-4.91,53.69.93-24.87,1.8-53.45,1.39-65.46-.81-23.29,8.45-48.41,8.45-48.41Z"/>
    </g>
    <g>
      <path class="cls-4" d="M832.4,775.19c.93-24.87,1.8-53.45,1.39-65.46-.81-23.29,8.45-48.41,8.45-48.41-1.45-40.36.06-56.39.06-56.39,0,0,2.55-25.01,4.91-32.55,2.57-8.21,11.25-37.17,11.27-37.17,4.22-10.06-3.89-58.4-3.89-58.4l7.43-1.37s6.69,1.55,16.24,3.3c8.24,1.52,18.62,3.18,28.67,4.13l.13,103.26-4.93,14.06"/>
      <path class="cls-4" d="M860.78,762.14c-4.08,23.03-8.88,60.86-8.88,60.86l-21.34-4.4s.94-20.02,1.83-43.33"/>
      <path class="cls-4" d="M860.8,762.02s-.02.08-.02.12"/>
      <path class="cls-4" d="M902.13,600.19l-20.07,56.56-6,16.9c1.73,23.9-7.65,63.03-11.59,72.16-.99,2.31-2.29,8.39-3.67,16.19"/>
      <path class="cls-4" d="M878.26,478.74s6.73,51.65,2.28,67.65c-4.2,15.13-11.25,59.13-.51,102.83.62,2.52,1.29,5.03,2.03,7.53"/>
      <path class="cls-4" d="M842.24,661.32s-4.53,33.16-4.93,60.18c-.34,23.68-4.64,51.94-4.91,53.69-.01.05-.01.08-.01.08"/>
      <path class="cls-4" d="M860.8,762.02c-.01.08-.02.12-.02.12"/>
      <path class="cls-4" d="M860.8,762v.02"/>
      <path class="cls-4" d="M880.03,649.22s-6.06,7.53-9.27,24.43c0,0-.36-2.82-2.01,23.85-.95,15.13-7.54,61.61-7.95,64.5"/>
      <path class="cls-4" d="M953.34,762.1c-1.39-7.84-2.69-13.97-3.69-16.29-3.94-9.13-13.32-48.26-11.59-72.16l-6-16.9-20.07-56.56"/>
      <path class="cls-4" d="M981.72,775.14c.89,23.36,1.84,43.46,1.84,43.46l-21.34,4.4s-4.8-37.87-8.88-60.9"/>
      <path class="cls-4" d="M907.19,482.87c10.06-.95,20.44-2.61,28.68-4.13,9.55-1.75,16.23-3.3,16.23-3.3l7.43,1.37s-8.11,48.34-3.89,58.4c.02,0,8.7,28.96,11.27,37.17,2.36,7.54,4.91,32.55,4.91,32.55,0,0,1.51,16.03.06,56.39,0,0,9.26,25.12,8.46,48.41-.42,12,.45,40.55,1.38,65.41"/>
      <line class="cls-4" x1="911.99" y1="600.19" x2="907.06" y2="586.13"/>
      <path class="cls-4" d="M935.87,478.74s-6.74,51.65-2.29,67.65c4.2,15.13,11.25,59.13.51,102.83-.62,2.52-1.29,5.03-2.03,7.53"/>
      <path class="cls-4" d="M971.88,661.32s4.53,33.16,4.93,60.18c.34,23.5,4.58,51.53,4.91,53.64.01.09.02.13.02.13"/>
      <path class="cls-4" d="M934.09,649.22s6.06,7.53,9.27,24.43c0,0,.36-2.82,2.01,23.85.96,15.38,7.76,63.12,7.97,64.6.01.03.01.04.01.04"/>
    </g>
  </g>
  <g>
    <g>
      <path class="cls-2" d="M882.83,264.26h2.91s6.19,1.96,21.45,1.96,21.45-1.95,21.45-1.95l.4-1.02c1.57.91,2.6,1.02,2.6,1.02l29.16,4.42s-14.33,18.61-3.02,54.82c-.99,8.6-6.9,57.14-6.9,57.55-.04.37-.7,5.22-.39,10.09,0,0,3.37,15.96,6.55,32.54,0,0-16.81,3.57-26.89,13.05-1.19,1.12-2.29,2.3-3.3,3.51-20.83-25.37-39.32,0-39.32,0-1.01-1.21-2.11-2.39-3.3-3.51-10.08-9.48-26.89-13.05-26.89-13.05,3.18-16.58,6.55-32.54,6.55-32.54.31-4.87-.35-9.72-.4-10.09,0-.49-6.26-51.88-6.98-58.21,11.33-36.22-2.43-54.16-2.43-54.16l30.54-5.06c-.91.44-1.56.59-1.79.63Z"/>
      <path class="cls-2" d="M929.04,263.25l-.4,1.02s-6.19,1.95-21.45,1.95-21.45-1.95-21.45-1.95h-2.91c.23-.05.88-.2,1.79-.64h0c1.45-.7,3.58-2.14,5.84-5.11h33.44c1.91,2.51,3.74,3.94,5.13,4.73Z"/>
      <path class="cls-8" d="M926.85,440.25c-7.62,9.05-10.6,19.84-10.6,19.84h-18.13s-2.97-10.79-10.59-19.84c0,0,18.49-25.37,39.32,0Z"/>
    </g>
    <g>
      <path class="cls-4" d="M884.63,263.63c1.45-.7,3.58-2.14,5.84-5.11h33.44c1.91,2.51,3.74,3.94,5.13,4.73,1.57.91,2.6,1.02,2.6,1.02l29.16,4.42s-14.33,18.61-3.02,54.82t.01.02"/>
      <path class="cls-4" d="M882.74,264.27s.03,0,.09-.01c.23-.04.88-.19,1.79-.63"/>
      <path class="cls-4" d="M863.49,381.06c.05.37.71,5.22.4,10.09,0,0-3.37,15.96-6.55,32.54,0,0,16.81,3.57,26.89,13.05,1.19,1.12,2.29,2.3,3.3,3.51,7.62,9.05,10.59,19.84,10.59,19.84h9.07"/>
      <path class="cls-4" d="M856.44,322.22s.02.25.07.63c.72,6.33,6.98,57.72,6.98,58.21t-.01-.02"/>
      <path class="cls-4" d="M885.74,264.27s6.19,1.95,21.45,1.95"/>
      <path class="cls-4" d="M950.89,381.04s0,.01-.01.02c-.04.37-.7,5.22-.39,10.09,0,0,3.37,15.96,6.55,32.54,0,0-16.81,3.57-26.89,13.05-1.19,1.12-2.29,2.3-3.3,3.51-7.62,9.05-10.6,19.84-10.6,19.84h-9.06"/>
      <path class="cls-4" d="M957.93,322.22s-.05.49-.15,1.29c-.99,8.6-6.9,57.14-6.9,57.55"/>
      <path class="cls-4" d="M928.64,264.27s-6.19,1.95-21.45,1.95"/>
      <path class="cls-4" d="M887.53,440.25s18.49-25.37,39.32,0"/>
      <path class="cls-4" d="M884.63,263.63h0l-30.54,5.06s13.76,17.94,2.43,54.16"/>
    </g>
  </g>
  <g>
    <g>
      <path class="cls-2" d="M679.59,264.02l28.41,2.98s-13.48,14.75-2.16,55.22h.02c-.62,4.19-9.64,58.85-9.85,60.1,0,0-2.79,11.24-1.87,15.34,0,0,.99,16.4,6.64,25.55l-36.06,19.47h-19.14l-36.06-19.47c5.64-9.15,6.63-25.55,6.63-25.55.92-4.1-1.87-15.34-1.87-15.34-.22-1.29-9.88-59.87-9.88-60.35,11.32-40.47-2.86-53.53-2.86-53.53l29.16-4.42s.31-.03.85-.22c0,0,8.68,6.17,23.59,6.76h.01c14.91-.59,21.87-7.55,21.87-7.55.08.05.16.1.24.14,1.42.77,2.33.87,2.33.87Z"/>
      <path class="cls-2" d="M677.02,263.01s-6.96,6.96-21.87,7.55h-.01c-14.91-.59-23.59-6.76-23.59-6.76,1.31-.43,3.98-1.74,6.88-5.54,0,0,7.62,2.84,17.53,2.84,4.95,0,10.48-.71,15.91-2.84,1.93,2.53,3.76,3.96,5.15,4.75Z"/>
      <polygon class="cls-8" points="664.72 442.68 661.8 461.05 647.93 461.05 645.58 442.68 655.09 442.68 655.2 442.68 664.72 442.68"/>
    </g>
    <g>
      <path class="cls-4" d="M604.4,321.97c11.32-40.47-2.86-53.53-2.86-53.53l29.16-4.42s.31-.03.85-.22c1.31-.43,3.98-1.74,6.88-5.54,0,0,7.62,2.84,17.53,2.84,4.95,0,10.48-.71,15.91-2.84,1.93,2.53,3.76,3.96,5.15,4.75.08.05.16.1.24.14,1.42.77,2.33.87,2.33.87"/>
      <path class="cls-4" d="M614.28,382.34v-.02s2.79,11.24,1.87,15.34c0,0-.99,16.4-6.63,25.55l36.06,19.47h9.51"/>
      <path class="cls-4" d="M604.4,321.97c0,.48,9.66,59.06,9.88,60.35"/>
      <path class="cls-4" d="M631.55,263.8s8.68,6.17,23.59,6.76"/>
      <path class="cls-4" d="M696.01,382.32s-2.79,11.24-1.87,15.34c0,0,.99,16.4,6.64,25.55l-36.06,19.47h-9.63"/>
      <path class="cls-4" d="M705.89,321.97s-.01.1-.03.25c-.62,4.19-9.64,58.85-9.85,60.1v.02"/>
      <path class="cls-4" d="M655.14,270.56h.01c14.91-.59,21.87-7.55,21.87-7.55"/>
      <polyline class="cls-4" points="645.58 442.68 647.93 461.05 661.8 461.05 664.72 442.68"/>
      <path class="cls-4" d="M679.59,264.02l28.41,2.98s-13.48,14.75-2.16,55.22"/>
    </g>
  </g>
  <g>
    <g>
      <path class="cls-5" d="M640.8,306.12c-.39.33-.87.5-1.44.5-.3,0-.59-.04-.88-.11-.15-.04-.27-.08-.37-.11-.1-.03-.19-.05-.26-.07-.06,0-.11.03-.13.07-.02.04-.03.07-.03.1h-.11l-.16-1.44.1-.06c.07.16.16.31.27.45.11.14.24.27.4.38.15.11.32.19.51.26.18.06.39.1.61.1.18,0,.35-.03.51-.09.16-.06.29-.14.41-.24.11-.1.21-.23.27-.37.07-.14.1-.29.1-.46,0-.36-.13-.66-.39-.88-.13-.11-.27-.22-.43-.33-.16-.11-.35-.22-.55-.33-.24-.13-.45-.26-.64-.39-.19-.13-.37-.27-.53-.42-.32-.3-.48-.69-.48-1.17,0-.43.18-.81.53-1.13.35-.31.78-.47,1.3-.47.27,0,.53.04.78.12.13.04.24.07.33.1.1.03.17.05.24.06.07,0,.12-.03.14-.07.02-.04.04-.08.04-.11h.1l.12,1.44h-.14c-.1-.3-.28-.55-.55-.76-.26-.21-.62-.31-1.06-.31-.32,0-.59.1-.8.29-.21.19-.31.43-.31.73s.16.56.47.81c.31.24.67.47,1.09.7l-.07-.03c.26.13.49.27.69.41.2.14.37.29.51.45.14.16.24.34.31.52.07.19.1.4.1.62,0,.48-.2.89-.6,1.22Z"/>
      <path class="cls-5" d="M641.86,306.5v-.1h.13c.13,0,.21-.03.25-.1.04-.07.06-.19.06-.37v-5.33c0-.18-.02-.3-.06-.37-.04-.07-.13-.1-.25-.1h-.13v-.1h4.26v.98s-.12,0-.12,0c-.04-.25-.12-.41-.25-.46-.11-.04-.28-.07-.49-.07h-1.93c-.11,0-.18.01-.19.04-.01.03-.02.09-.02.18v2.18h1.94c.25,0,.41-.03.48-.1.07-.06.12-.19.14-.38h.12v1.44h-.12c-.01-.1-.03-.17-.05-.24-.02-.06-.05-.11-.09-.15-.04-.04-.1-.07-.18-.08-.08-.02-.18-.02-.3-.02h-1.94v2.49c0,.09.03.14.1.16.06.02.19.02.37.02h1.57c.15,0,.28,0,.4-.02.11-.02.21-.05.3-.1.09-.05.17-.12.24-.21.07-.09.14-.2.2-.35h.15l-.24,1.14h-4.35Z"/>
      <path class="cls-5" d="M653.48,306.5h-1.62v-.1c.15,0,.26-.03.32-.08.03-.03.04-.06.04-.11.01-.06,0-.13-.04-.21l-.59-1.45h-2.87l-.53,1.34c-.05.13-.08.23-.08.3,0,.06.01.1.04.12.06.06.17.1.32.1v.1h-1.43v-.1c.14-.01.26-.07.36-.17.1-.1.19-.23.26-.39l2.44-5.87h.43l2.54,6.12c.08.13.14.22.21.25.06.03.13.05.21.07v.1ZM650.17,300.98l-1.26,3.11h2.52l-1.26-3.11Z"/>
      <path class="cls-5" d="M657.75,300.9c0-.29-.02-.48-.07-.6-.04-.11-.14-.17-.29-.17h-.14v-.1h1.52v.1h-.14c-.15,0-.24.06-.29.17-.04.11-.07.31-.07.6v3.34c0,.76-.21,1.35-.63,1.76-.42.41-1.01.62-1.78.62s-1.36-.21-1.78-.62c-.42-.41-.63-1-.63-1.77v-3.62c0-.18-.02-.3-.07-.37-.04-.07-.14-.1-.28-.1h-.14v-.1h1.77v.1h-.13c-.15,0-.24.03-.28.1-.04.07-.06.19-.06.37v3.63c0,1.27.58,1.9,1.73,1.9.55,0,.99-.16,1.3-.47.31-.31.47-.75.47-1.31v-3.45Z"/>
      <path class="cls-5" d="M660.69,305.94c0,.18.02.3.06.37.04.07.14.1.28.1h.13v.1h-1.74v-.1h.13c.13,0,.21-.03.25-.1.04-.07.06-.19.06-.37v-5.33c0-.18-.02-.3-.06-.37-.04-.07-.13-.1-.25-.1h-.13v-.1h2.28c.67,0,1.2.14,1.57.43.38.29.56.71.56,1.27,0,.4-.14.74-.41,1.02-.27.28-.68.46-1.24.53.18.17.35.32.49.46.14.14.26.26.35.37.09.11.19.23.3.37.11.14.23.29.35.46.11.14.2.29.28.46.08.17.16.32.23.47.08.14.16.26.25.36.09.1.2.15.33.15v.1h-1.16c-.07-.14-.13-.26-.18-.37-.05-.1-.11-.22-.18-.34-.07-.12-.13-.23-.19-.32-.15-.24-.31-.47-.49-.69-.17-.22-.31-.38-.4-.5-.18-.22-.49-.49-.92-.81h-.59v2.46ZM661.14,303.03c.58,0,1.03-.11,1.36-.34.33-.23.5-.57.5-1.03,0-.4-.13-.69-.4-.88-.27-.19-.66-.28-1.18-.28-.2,0-.36,0-.47.02-.11.02-.2.06-.26.14v2.38h.46Z"/>
      <path class="cls-5" d="M666.04,305.37c.45.52,1.06.77,1.85.77.34,0,.68-.05,1.01-.16.33-.11.61-.27.85-.48l.13.35c-.31.27-.64.46-.99.58-.36.12-.74.18-1.16.18-.99,0-1.77-.3-2.36-.91-.59-.6-.88-1.42-.88-2.43s.3-1.78.91-2.41c.61-.63,1.39-.94,2.33-.94.36,0,.69.04,1.01.11.16.03.29.06.4.09.11.03.19.05.26.07.05,0,.1-.03.14-.09.04-.06.07-.12.09-.18h.1l.06,1.3v.28s-.1.03-.1.03c-.1-.22-.22-.4-.35-.54-.13-.14-.29-.25-.46-.34-.17-.08-.34-.15-.51-.19-.18-.04-.35-.07-.53-.07-.76,0-1.37.26-1.81.78-.44.53-.66,1.23-.66,2.1s.22,1.59.67,2.1Z"/>
      <path class="cls-5" d="M671.09,300.24c-.04-.07-.14-.1-.28-.1h-.13v-.1h1.75v.1h-.13c-.13,0-.22.03-.26.1-.04.07-.06.19-.06.37v2.35h3.12v-2.35c0-.18-.02-.3-.06-.37-.04-.07-.14-.1-.28-.1h-.13v-.1h1.76v.1h-.13c-.14,0-.23.03-.27.1-.04.07-.06.19-.06.37v5.33c0,.18.02.3.06.37.04.07.13.1.27.1h.13v.1h-1.76v-.1h.13c.15,0,.24-.03.28-.1.04-.07.06-.19.06-.37v-2.5h-3.12v2.5c0,.18.02.3.06.37.04.07.13.1.26.1h.13v.1h-1.75v-.1h.13c.15,0,.24-.03.28-.1.04-.07.06-.19.06-.37v-5.33c0-.18-.02-.3-.06-.37Z"/>
      <path class="cls-5" d="M678.41,306.31c.04.07.14.1.3.1h.15v.1h-1.85v-.1h.15c.16,0,.26-.03.3-.1.04-.07.06-.19.06-.37v-5.33c0-.18-.02-.3-.06-.37-.04-.07-.14-.1-.3-.1h-.15v-.1h1.85v.1h-.15c-.16,0-.26.03-.3.1-.04.07-.06.19-.06.37v5.33c0,.18.02.3.06.37Z"/>
      <path class="cls-5" d="M684.5,300.84c0-.27-.02-.45-.06-.55-.04-.1-.14-.15-.29-.15h-.16v-.1h1.55v.1h-.15c-.15,0-.24.05-.29.15-.04.1-.07.29-.07.55v5.71h-.49l-3.83-5.48v4.65c0,.25.02.43.07.53.04.1.14.15.29.15h.14v.1h-1.54v-.1h.15c.15,0,.25-.05.3-.15.04-.1.07-.28.07-.53v-5.18l-.16-.3c-.03-.05-.07-.08-.1-.09-.04,0-.08-.01-.14-.01h-.11v-.1h1.26c.6.9,1.19,1.76,1.78,2.6.59.84,1.19,1.71,1.78,2.6v-4.41Z"/>
    </g>
    <path class="cls-5" d="M636.15,306.05l-2.66-1.77c.09-.26.15-.54.16-.84l3.21-.81-5.55.22.21-.13.58-.36,1.4.08c-.13-.38-.35-.73-.62-1.02l3.41-2.51-3.75,2.21c-.06-.05-.12-.09-.19-.13l1.56-3.89-2.79,4.82-.19-.52.54-.78c-.19-.04-.39-.07-.59-.07-.13,0-.25.01-.38.03l-1.5-3.8,1.09,3.88c-.35.1-.68.27-.95.5l-3.61-3.22,4.6,5.28-.79-.05-.08-.11-.8-1.09c-.2.35-.32.74-.35,1.16l-3.21.2,3.21.13c.02.42.13.82.31,1.17l-2.71,2.64,4.44-3.06-.33.69-.82.47c.3.28.67.5,1.08.62l-1.08,3.21,1.42-3.13c.15.03.31.04.47.04.38,0,.74-.08,1.07-.21l1.74,2.26-1.64-3.85.68.58.12.4c.19-.19.35-.4.47-.64l2.82,1.39Z"/>
  </g>
  <g>
    <g>
      <g>
        <path class="cls-5" d="M879.7,305.77c0-.54.4-.96.96-.96s.96.41.96.96-.4.95-.96.95-.96-.41-.96-.95ZM881.53,305.77c0-.5-.36-.87-.87-.87s-.87.38-.87.87.36.87.87.87.87-.37.87-.87Z"/>
        <path class="cls-5" d="M880.66,306.76c-.57,0-.99-.41-.99-.98s.42-.99.99-.99.99.42.99.99-.42.98-.99.98ZM880.66,304.84c-.54,0-.93.39-.93.93s.39.92.93.92.93-.39.93-.92-.39-.93-.93-.93ZM880.66,306.67c-.51,0-.9-.39-.9-.9s.39-.9.9-.9.9.38.9.9-.38.9-.9.9ZM880.66,304.93c-.49,0-.84.35-.84.84s.35.84.84.84.84-.35.84-.84-.35-.84-.84-.84Z"/>
      </g>
      <g>
        <path class="cls-5" d="M883.42,306.1v-.83h.08v.82c0,.34.2.56.52.56s.52-.21.52-.56v-.82h.08v.83c0,.38-.23.63-.6.63s-.6-.25-.6-.63Z"/>
        <path class="cls-5" d="M884.02,306.76c-.38,0-.63-.26-.63-.66v-.86h.14v.85c0,.32.19.53.49.53s.49-.2.49-.53v-.85h.14v.86c0,.4-.25.66-.63.66ZM883.45,305.3v.8c0,.37.22.6.57.6s.57-.23.57-.6v-.8h-.02v.79c0,.36-.21.59-.55.59s-.55-.22-.55-.59v-.79h-.02Z"/>
      </g>
      <g>
        <path class="cls-5" d="M887.25,305.26v.08h-.13c-.3,0-.5.23-.5.55v.81h-.08v-1.43h.07v.32c.1-.2.28-.33.52-.33h.12Z"/>
        <path class="cls-5" d="M886.66,306.73h-.14v-1.49h.13v.25c.12-.16.29-.25.49-.25h.15v.14h-.16c-.28,0-.47.21-.47.52v.84ZM886.57,306.67h.02v-.78c0-.34.22-.58.53-.58h.1v-.02h-.09c-.22,0-.39.11-.48.31l-.05.12-.02-.42h0v1.37Z"/>
      </g>
      <g>
        <path class="cls-5" d="M892.36,306.01h-1.34c.01.37.28.63.63.63.25,0,.45-.13.57-.35h.09c-.14.28-.37.44-.66.44-.41,0-.72-.32-.72-.75s.31-.74.72-.74.7.32.7.73c0,.01,0,.02,0,.04ZM891.03,305.93h1.25c-.02-.36-.28-.61-.62-.61s-.61.26-.63.61Z"/>
        <path class="cls-5" d="M891.66,306.76c-.43,0-.75-.33-.75-.78s.32-.77.75-.77.73.33.73.76c0,.01,0,.03,0,.04v.03h-1.33c.03.33.27.57.6.57.24,0,.43-.12.54-.34v-.02h.16l-.02.04c-.14.29-.38.45-.69.45ZM891.66,305.27c-.39,0-.69.31-.69.71s.3.72.69.72c.27,0,.48-.13.61-.38h-.02c-.12.22-.34.35-.59.35-.37,0-.65-.28-.66-.66v-.03s1.34,0,1.34,0h0c0-.41-.29-.71-.67-.71ZM892.31,305.96h-1.32v-.03c.03-.37.31-.64.66-.64s.63.26.65.64v.03ZM891.06,305.9h1.19c-.03-.32-.27-.55-.59-.55s-.56.23-.6.55Z"/>
      </g>
      <g>
        <path class="cls-5" d="M896.21,305.79v.9h-.08v-.88c0-.3-.16-.5-.41-.5-.28,0-.48.22-.48.54v.84h-.08v-.88c0-.3-.16-.5-.41-.5-.28,0-.48.22-.48.54v.84h-.08v-1.43h.07v.29c.1-.2.29-.32.51-.32s.4.14.46.37c.08-.23.27-.37.52-.37.29,0,.48.22.48.56Z"/>
        <path class="cls-5" d="M896.24,306.73h-.14v-.91c0-.28-.15-.47-.38-.47-.27,0-.45.21-.45.51v.87h-.14v-.91c0-.29-.15-.47-.38-.47-.27,0-.45.21-.45.51v.87h-.14v-1.49h.13v.22c.12-.15.29-.24.49-.24.21,0,.38.11.46.31.1-.2.29-.31.52-.31.31,0,.51.24.51.59v.93ZM896.16,306.67h.02v-.87c0-.31-.18-.53-.45-.53-.23,0-.41.13-.49.35l-.03.09-.02-.09c-.06-.22-.22-.34-.43-.34s-.39.11-.47.3l-.05.11-.02-.39h0v1.37h.02v-.81c0-.34.21-.57.51-.57.27,0,.44.21.44.53v.85h.02v-.81c0-.34.21-.57.51-.57.26,0,.44.21.44.53v.85Z"/>
      </g>
      <g>
        <path class="cls-5" d="M899.59,305.98c0,.42-.3.74-.73.74-.29,0-.53-.16-.65-.4v.88h-.08v-1.94h.07l.02.37c.12-.24.36-.4.65-.4.42,0,.73.32.73.74ZM899.51,305.98c0-.38-.27-.66-.65-.66s-.65.28-.65.66.28.66.65.66.65-.28.65-.66Z"/>
        <path class="cls-5" d="M898.24,307.23h-.14v-2h.12v.3c.15-.2.38-.33.64-.33.44,0,.76.33.76.77s-.32.77-.76.77c-.26,0-.48-.12-.62-.32v.8ZM898.16,307.17h.02v-.98l.06.12c.12.24.35.38.62.38.4,0,.7-.3.7-.71s-.29-.71-.7-.71c-.28,0-.51.14-.63.39l-.05.11-.02-.47h0v1.88ZM898.86,306.67c-.39,0-.68-.3-.68-.69s.29-.69.68-.69.68.29.68.69-.28.69-.68.69ZM898.86,305.35c-.35,0-.62.27-.62.63s.27.63.62.63.62-.27.62-.63-.26-.63-.62-.63Z"/>
      </g>
      <g>
        <path class="cls-5" d="M902.09,306.62v.08h-.19c-.27,0-.43-.16-.43-.44v-.92h-.33v-.07h.33v-.42h.08v.42h.52v.07h-.52v.92c0,.23.13.36.35.36h.18Z"/>
        <path class="cls-5" d="M902.12,306.73h-.22c-.28,0-.46-.18-.46-.47v-.89h-.33v-.14h.33v-.42h.14v.42h.52v.14h-.52v.89c0,.21.11.33.32.33h.21v.14ZM901.18,305.31h.33v.95c0,.25.15.41.4.41h.16v-.02h-.15c-.24,0-.38-.15-.38-.39v-.95h.52s-.52-.01-.52-.01v-.42h-.02v.42h-.33Z"/>
      </g>
      <g>
        <path class="cls-5" d="M903.8,304.8h.12v.15h-.12v-.15ZM903.82,305.27h.08v1.43h-.08v-1.43Z"/>
        <path class="cls-5" d="M903.93,306.73h-.14v-1.49h.14v1.49ZM903.85,306.67h.02v-1.37h-.02v1.37ZM903.95,304.98h-.18v-.21h.18v.21ZM903.83,304.92h.06v-.09h-.06v.09Z"/>
      </g>
      <g>
        <path class="cls-5" d="M907.05,305.85v.85h-.08v-.83c0-.34-.19-.55-.49-.55s-.54.25-.54.55v.83h-.08v-1.43h.07l.02.33c.1-.21.31-.36.56-.36.35,0,.56.24.56.61Z"/>
        <path class="cls-5" d="M907.08,306.73h-.14v-.86c0-.32-.17-.52-.46-.52s-.51.24-.51.52v.86h-.14v-1.49h.13v.25c.13-.17.33-.28.55-.28.36,0,.59.25.59.64v.88ZM907,306.67h.02v-.82c0-.35-.21-.58-.53-.58-.23,0-.44.13-.53.34l-.05.11-.02-.42h0v1.37h.02v-.8c0-.31.26-.58.57-.58s.52.22.52.58v.8Z"/>
      </g>
      <g>
        <path class="cls-5" d="M910.27,306.01h-1.34c.01.37.28.63.63.63.25,0,.45-.13.57-.35h.09c-.14.28-.37.44-.66.44-.41,0-.72-.32-.72-.75s.31-.74.72-.74.7.32.7.73c0,.01,0,.02,0,.04ZM908.93,305.93h1.25c-.02-.36-.28-.61-.62-.61s-.61.26-.63.61Z"/>
        <path class="cls-5" d="M909.56,306.76c-.43,0-.75-.33-.75-.78s.32-.77.75-.77.73.33.73.76c0,.01,0,.03,0,.04v.03h-1.33c.03.33.27.57.6.57.24,0,.43-.12.54-.34v-.02h.16l-.02.04c-.14.29-.38.45-.69.45ZM909.56,305.27c-.39,0-.69.31-.69.71s.3.72.69.72c.27,0,.48-.13.61-.38h-.02c-.12.22-.34.35-.59.35-.37,0-.65-.28-.66-.66v-.03s1.34,0,1.34,0h0c0-.41-.29-.71-.67-.71ZM910.22,305.96h-1.32v-.03c.03-.37.31-.64.66-.64s.63.26.65.64v.03ZM908.96,305.9h1.19c-.03-.32-.27-.55-.59-.55s-.56.23-.6.55Z"/>
      </g>
      <g>
        <path class="cls-5" d="M911.94,306.31h.08c.02.21.19.34.46.34s.45-.13.45-.33c0-.25-.23-.29-.47-.33-.25-.04-.5-.09-.5-.37,0-.23.21-.38.51-.38s.5.15.51.4h-.08c-.01-.2-.17-.32-.43-.32s-.42.12-.42.3c0,.21.21.25.44.29.25.04.53.09.53.41,0,.25-.22.41-.54.41s-.52-.16-.55-.42Z"/>
        <path class="cls-5" d="M912.49,306.76c-.34,0-.55-.17-.58-.45v-.03s.14,0,.14,0v.03c.02.2.18.31.44.31s.42-.12.42-.3c0-.21-.18-.26-.44-.3-.25-.04-.53-.09-.53-.4,0-.25.22-.41.54-.41s.53.16.54.43v.03s-.14,0-.14,0v-.03c-.01-.19-.16-.29-.4-.29s-.39.11-.39.27c0,.18.16.22.41.26.24.04.56.09.56.44,0,.26-.23.44-.57.44ZM911.98,306.34c.04.22.22.36.51.36.31,0,.51-.15.51-.38,0-.3-.27-.34-.51-.38-.24-.04-.47-.08-.47-.32,0-.2.18-.33.45-.33s.43.12.46.32h.02c-.03-.21-.2-.34-.48-.34s-.48.14-.48.35c0,.26.23.3.48.34.23.04.49.08.49.36,0,.21-.19.36-.48.36-.27,0-.45-.13-.49-.34h-.02Z"/>
      </g>
      <g>
        <path class="cls-5" d="M914.71,306.31h.08c.02.21.19.34.46.34s.45-.13.45-.33c0-.25-.23-.29-.47-.33-.25-.04-.5-.09-.5-.37,0-.23.21-.38.51-.38s.5.15.51.4h-.08c-.01-.2-.17-.32-.43-.32s-.42.12-.42.3c0,.21.21.25.44.29.25.04.53.09.53.41,0,.25-.22.41-.54.41s-.52-.16-.55-.42Z"/>
        <path class="cls-5" d="M915.25,306.76c-.34,0-.55-.17-.58-.45v-.03s.14,0,.14,0v.03c.02.2.18.31.44.31s.42-.12.42-.3c0-.21-.18-.26-.44-.3-.25-.04-.53-.09-.53-.4,0-.25.22-.41.54-.41s.53.16.54.43v.03s-.14,0-.14,0v-.03c-.01-.19-.16-.29-.4-.29s-.39.11-.39.27c0,.18.16.22.41.26.24.04.56.09.56.44,0,.26-.23.44-.57.44ZM914.74,306.34c.04.22.22.36.51.36.31,0,.51-.15.51-.38,0-.3-.27-.34-.51-.38-.24-.04-.47-.08-.47-.32,0-.2.18-.33.45-.33s.43.12.46.32h.02c-.03-.21-.2-.34-.48-.34s-.48.14-.48.35c0,.26.23.3.48.34.23.04.49.08.49.36,0,.21-.19.36-.48.36-.27,0-.45-.13-.49-.34h-.02Z"/>
      </g>
      <g>
        <path class="cls-5" d="M920.42,305.34h-.51v1.35h-.08v-1.35h-.31v-.07h.31v-.11c0-.33.13-.46.46-.46h.13v.07h-.12c-.29,0-.39.1-.39.39v.11h.51v.07Z"/>
        <path class="cls-5" d="M919.94,306.73h-.14v-1.35h-.31v-.14h.31v-.08c0-.35.14-.49.49-.49h.16v.13h-.15c-.28,0-.36.08-.36.36v.08h.51v.14h-.51v1.35ZM919.85,306.67h.02v-1.35h.51s-.51-.01-.51-.01v-.14c0-.31.11-.42.42-.42h.09s-.1-.01-.1-.01c-.32,0-.43.11-.43.43v.14h-.31s.31.01.31.01v1.35Z"/>
      </g>
      <g>
        <path class="cls-5" d="M921.94,305.98c0-.43.32-.74.75-.74s.74.32.74.74-.32.74-.74.74-.75-.32-.75-.74ZM923.35,305.98c0-.38-.28-.66-.66-.66s-.66.28-.66.66.28.66.66.66.66-.28.66-.66Z"/>
        <path class="cls-5" d="M922.69,306.76c-.44,0-.78-.33-.78-.77s.33-.77.78-.77.78.33.78.77-.33.77-.78.77ZM922.69,305.27c-.41,0-.72.31-.72.71s.31.71.72.71.71-.31.71-.71-.31-.71-.71-.71ZM922.69,306.67c-.39,0-.69-.3-.69-.69s.3-.69.69-.69.69.3.69.69-.3.69-.69.69ZM922.69,305.35c-.36,0-.63.27-.63.63s.27.63.63.63.63-.27.63-.63-.27-.63-.63-.63Z"/>
      </g>
      <g>
        <path class="cls-5" d="M925.96,305.26v.08h-.13c-.3,0-.5.23-.5.55v.81h-.08v-1.43h.07v.32c.1-.2.28-.33.52-.33h.12Z"/>
        <path class="cls-5" d="M925.37,306.73h-.14v-1.49h.13v.25c.12-.16.29-.25.49-.25h.15v.14h-.16c-.28,0-.47.21-.47.52v.84ZM925.28,306.67h.02v-.78c0-.34.22-.58.53-.58h.1v-.02h-.09c-.22,0-.39.11-.48.31l-.05.12-.02-.42h0v1.37Z"/>
      </g>
      <g>
        <path class="cls-5" d="M930.9,305.27l-.73,1.56c-.14.3-.26.38-.49.38h-.11v-.08h.11c.2,0,.29-.06.42-.32l.09-.18-.67-1.35h.09l.62,1.26.59-1.26h.09Z"/>
        <path class="cls-5" d="M929.68,307.23h-.14v-.14h.14c.17,0,.27-.04.39-.31l.08-.17-.68-1.38h.16l.6,1.22.57-1.22h.16l-.02.04-.73,1.56c-.14.3-.27.4-.52.4ZM929.59,307.17h.08c.23,0,.33-.08.46-.36l.71-1.51h-.02l-.6,1.3-.64-1.3h-.03l.65,1.32-.09.2c-.12.26-.23.34-.45.34h-.08v.02Z"/>
      </g>
      <g>
        <path class="cls-5" d="M932.48,305.98c0-.43.32-.74.75-.74s.74.32.74.74-.32.74-.74.74-.75-.32-.75-.74ZM933.88,305.98c0-.38-.28-.66-.66-.66s-.66.28-.66.66.28.66.66.66.66-.28.66-.66Z"/>
        <path class="cls-5" d="M933.22,306.76c-.44,0-.78-.33-.78-.77s.33-.77.78-.77.78.33.78.77-.33.77-.78.77ZM933.22,305.27c-.41,0-.72.31-.72.71s.31.71.72.71.71-.31.71-.71-.31-.71-.71-.71ZM933.22,306.67c-.39,0-.69-.3-.69-.69s.3-.69.69-.69.69.3.69.69-.3.69-.69.69ZM933.22,305.35c-.36,0-.63.27-.63.63s.27.63.63.63.63-.27.63-.63-.27-.63-.63-.63Z"/>
      </g>
      <g>
        <path class="cls-5" d="M935.76,306.1v-.83h.08v.82c0,.34.2.56.52.56s.52-.21.52-.56v-.82h.08v.83c0,.38-.23.63-.6.63s-.6-.25-.6-.63Z"/>
        <path class="cls-5" d="M936.36,306.76c-.38,0-.63-.26-.63-.66v-.86h.14v.85c0,.32.19.53.49.53s.49-.2.49-.53v-.85h.14v.86c0,.4-.25.66-.63.66ZM935.79,305.3v.8c0,.37.22.6.57.6s.57-.23.57-.6v-.8h-.02v.79c0,.36-.21.59-.55.59s-.55-.22-.55-.59v-.79h-.02Z"/>
      </g>
    </g>
    <g>
      <path class="cls-5" d="M882.01,296.94c.35,0,.62.09.83.26.21.18.31.41.31.71h1.2c0-.47-.22-.86-.67-1.18-.45-.33-1.01-.49-1.67-.49s-1.22.16-1.67.49c-.44.32-.67.71-.67,1.18,0,.38.34.76,1.03,1.16.4.24.83.43,1.26.58.79.3,1.19.62,1.19.97,0,.3-.09.53-.28.7-.19.18-.48.27-.85.27s-.63-.07-.83-.22c-.21-.16-.31-.39-.31-.68h-1.2c0,.46.22.85.67,1.15.45.31,1,.46,1.67.46s1.22-.16,1.67-.49c.44-.32.67-.72.67-1.18,0-.38-.35-.78-1.05-1.18-.4-.23-.82-.42-1.24-.56-.26-.08-.51-.2-.74-.36-.3-.21-.45-.41-.45-.61,0-.3.09-.53.28-.7.2-.19.49-.28.86-.28Z"/>
      <path class="cls-5" d="M890.61,300.11c-.16.44-.4.8-.71,1.06-.33.27-.71.41-1.14.41-.5,0-.91-.19-1.24-.57-.3-.34-.51-.81-.64-1.4h5.04c.08-.08.11-.19.11-.33,0-.83-.32-1.55-.96-2.14-.64-.59-1.41-.89-2.32-.89s-1.67.3-2.32.89c-.64.59-.96,1.31-.96,2.14s.32,1.55.96,2.14c.64.59,1.41.89,2.32.89.74,0,1.4-.21,1.98-.62.57-.4.96-.93,1.16-1.57h-1.29ZM887.52,297.53c.32-.38.73-.57,1.24-.57s.96.19,1.33.57c.36.37.57.84.65,1.4h-3.76c.08-.59.26-1.06.55-1.4Z"/>
      <path class="cls-5" d="M905.67,299.27c0,.69-.13,1.23-.38,1.64-.28.45-.69.67-1.24.67s-.96-.22-1.24-.67c-.25-.4-.37-.95-.37-1.64v-3.03h-1.19v3.03c0,.87.24,1.58.72,2.14.51.59,1.2.89,2.08.89.63,0,1.17-.16,1.62-.48v.48h1.75v-.66h-.57v-4.73h.57v-.66h-1.75v3.03Z"/>
      <path class="cls-5" d="M910.23,296.25h-1.65v.67h.56v4.71h-.56v.66h1.65v-3.03c0-.64.19-1.19.57-1.63.38-.45.86-.67,1.43-.67l.09-.72c-.79,0-1.49.23-2.09.7v-.69Z"/>
      <path class="cls-5" d="M915.77,296.97c.89,0,1.5.49,1.85,1.47h1.29c-.2-.64-.58-1.16-1.16-1.57-.58-.41-1.24-.62-1.98-.62-.9,0-1.67.3-2.31.89-.64.59-.96,1.3-.96,2.14s.32,1.55.96,2.14c.64.59,1.41.89,2.31.89.74,0,1.4-.21,1.98-.62.57-.4.96-.93,1.16-1.56h-1.29c-.35.98-.96,1.46-1.85,1.46-.57,0-1.03-.22-1.38-.67-.35-.44-.52-.98-.52-1.63s.17-1.2.52-1.63c.36-.45.82-.67,1.38-.67Z"/>
      <path class="cls-5" d="M923.59,296.24c-.69,0-1.29.19-1.81.56v-2.61h-1.66v.66h.56v6.79h-.56v.66h1.66v-3.03c0-.66.16-1.21.47-1.64.33-.45.78-.67,1.34-.67s1.01.22,1.34.67c.32.43.48.98.48,1.64v3.03h1.18v-3.03c0-.85-.27-1.57-.82-2.14-.56-.59-1.29-.89-2.18-.89Z"/>
      <path class="cls-5" d="M928.78,294.22c-.16,0-.3.05-.41.16-.12.1-.17.23-.17.38s.06.28.17.38c.12.11.25.16.41.16s.3-.05.42-.16c.11-.1.17-.23.17-.38s-.06-.28-.17-.38c-.12-.11-.26-.16-.42-.16Z"/>
      <polygon class="cls-5" points="927.73 296.92 928.29 296.92 928.29 301.63 927.73 301.63 927.73 302.29 929.37 302.29 929.37 296.25 927.73 296.25 927.73 296.92"/>
      <path class="cls-5" d="M936.18,297.13c-.57-.59-1.29-.89-2.17-.89-.69,0-1.3.19-1.81.56v-.56h-1.65v.66h.57v4.73h-.57v.66h1.65v-3.03c0-.66.16-1.2.47-1.63.33-.45.78-.67,1.34-.67s1.01.22,1.34.67c.31.43.47.97.47,1.63v3.03h1.18v-3.03c0-.86-.27-1.57-.82-2.14Z"/>
      <path class="cls-5" d="M901.31,301.74l-1.74-1.34v-3.49h.56v-.67h-1.65v.7c-.14-.11-.29-.21-.45-.29l1.22-2.16-1.7,1.94c-.35-.12-.73-.19-1.13-.19l-.36-1.83-.06,1.85c-.45.05-.87.17-1.25.38l-2.98-2.91,2.18,3.52c-.55.57-.83,1.23-.83,2.01,0,.58.16,1.1.46,1.56l-1.94,1.88,2.14-1.61c.09.1.18.2.29.3.63.59,1.4.88,2.29.88l.06,1.81.17-1.82c.7-.04,1.32-.27,1.87-.69v.7h1.65v-.66h-.56v-.68l1.74.79ZM897.88,300.9c-.34.37-.74.59-1.19.65l.11-1.22h-.48s.04,1.24.04,1.24c-.56-.01-1.03-.23-1.43-.67-.12-.13-.21-.27-.3-.41l1.41-1.06-.45-.53-1.15,1.12c-.07-.24-.11-.49-.11-.75,0-.64.2-1.18.61-1.63.31-.33.66-.54,1.06-.63l-.02.46.69-.05-.09-.44c.5.04.93.26,1.3.66.4.45.61.99.61,1.63s-.2,1.18-.61,1.63Z"/>
    </g>
  </g>
  <g>
    <polygon class="cls-5" points="684.88 601.75 684.88 609.41 688.94 609.41 688.94 609.29 685 609.29 685 601.87 715.45 601.87 715.45 609.29 711.5 609.29 711.5 609.41 715.57 609.41 715.57 601.75 684.88 601.75"/>
    <path class="cls-5" d="M690.8,608.71c-.34,0-.58.24-.58.58s.24.58.58.58.58-.24.58-.58-.24-.58-.58-.58ZM690.8,609.78c-.28,0-.49-.21-.49-.49s.21-.49.49-.49.49.21.49.49-.21.49-.49.49Z"/>
    <path class="cls-5" d="M692.38,609.47c0,.19-.11.31-.29.31s-.29-.12-.29-.31v-.5h-.09v.5c0,.23.15.39.37.39s.37-.15.37-.39v-.5h-.09v.5Z"/>
    <path class="cls-5" d="M692.95,609.11v-.14h-.08v.87h.09v-.49c0-.18.11-.3.27-.3h.09v-.08h-.09c-.12,0-.22.05-.28.14Z"/>
    <path class="cls-5" d="M694.53,608.95c-.25,0-.44.19-.44.45s.19.45.44.45c.18,0,.32-.09.4-.27v-.03s-.08,0-.08,0h0c-.07.14-.18.21-.32.21-.19,0-.34-.14-.35-.33h.78v-.02s0-.02,0-.02c0-.26-.18-.45-.43-.45ZM694.18,609.36c.02-.19.17-.32.35-.32s.32.13.34.32h-.69Z"/>
    <path class="cls-5" d="M696.23,608.95c-.13,0-.24.07-.3.18-.05-.11-.14-.18-.27-.18-.12,0-.22.05-.28.14v-.13h-.08v.87h.09v-.51c0-.18.11-.3.26-.3.14,0,.22.1.22.27v.54h.09v-.51c0-.18.11-.3.27-.3.13,0,.22.11.22.27v.54h.09v-.55c0-.21-.12-.34-.3-.34Z"/>
    <path class="cls-5" d="M697.39,608.95c-.15,0-.29.07-.37.19v-.17h-.08v1.17h.09v-.46c.08.12.21.18.36.18.26,0,.44-.19.44-.45s-.19-.45-.44-.45ZM697.39,609.78c-.21,0-.36-.16-.36-.37s.16-.37.36-.37.36.16.36.37-.15.37-.36.37Z"/>
    <path class="cls-5" d="M698.31,609.57v-.52h.3v-.08h-.3v-.25h-.09v.25h-.19v.08h.19v.52c0,.17.1.27.27.27h.13v-.08h-.12c-.12,0-.19-.07-.19-.19Z"/>
    <rect class="cls-5" x="698.91" y="608.7" width=".11" height=".12"/>
    <rect class="cls-5" x="698.92" y="608.97" width=".09" height=".87"/>
    <path class="cls-5" d="M699.82,608.95c-.13,0-.24.06-.31.16v-.15h-.08v.87h.09v-.51c0-.16.14-.3.3-.3s.27.11.27.3v.51h.09v-.51c0-.23-.14-.38-.35-.38Z"/>
    <path class="cls-5" d="M700.94,608.95c-.25,0-.44.19-.44.45s.19.45.44.45c.18,0,.32-.09.4-.27v-.03s-.08,0-.08,0h0c-.07.14-.18.21-.32.21-.19,0-.34-.14-.35-.33h.78v-.02s0-.01,0-.02c0-.26-.18-.45-.43-.45ZM700.59,609.36c.02-.19.17-.32.35-.32s.32.13.34.32h-.69Z"/>
    <path class="cls-5" d="M701.98,609.35c-.15-.03-.24-.05-.24-.15,0-.1.09-.16.23-.16s.23.06.23.17v.02h.09v-.02c0-.16-.13-.25-.32-.25s-.32.1-.32.24c0,.18.16.21.31.23.15.03.26.05.26.18,0,.11-.1.17-.25.17s-.24-.07-.25-.18v-.02h-.09v.02c.02.16.14.26.34.26s.33-.1.33-.26c0-.2-.19-.24-.33-.26Z"/>
    <path class="cls-5" d="M702.92,609.35c-.15-.03-.24-.05-.24-.15,0-.1.09-.16.23-.16s.23.06.23.17v.02h.09v-.02c0-.16-.13-.25-.32-.25s-.32.1-.32.24c0,.18.16.21.31.23.15.03.26.05.26.18,0,.11-.1.17-.25.17s-.24-.07-.25-.18v-.02h-.09v.02c.02.16.14.26.34.26s.33-.1.33-.26c0-.2-.19-.24-.33-.26Z"/>
    <path class="cls-5" d="M704.3,608.93c0-.16.05-.21.21-.21h.09v-.08h-.09c-.21,0-.29.08-.29.29v.05h-.18v.08h.18v.79h.09v-.79h.3v-.08h-.3v-.05Z"/>
    <path class="cls-5" d="M705.23,608.95c-.26,0-.45.19-.45.45s.2.45.45.45.45-.19.45-.45-.2-.45-.45-.45ZM705.23,609.78c-.21,0-.37-.16-.37-.37s.15-.37.37-.37.37.16.37.37-.16.37-.37.37Z"/>
    <path class="cls-5" d="M706.12,609.11v-.14h-.08v.87h.09v-.49c0-.18.11-.3.27-.3h.09v-.08h-.09c-.12,0-.22.05-.28.14Z"/>
    <path class="cls-5" d="M707.61,609.68l-.35-.71h-.1l.4.81-.05.1c-.07.15-.13.18-.23.18h-.08v.08h.08c.15,0,.22-.06.3-.23l.43-.91v-.03s-.08,0-.08,0l-.33.71Z"/>
    <path class="cls-5" d="M708.69,608.95c-.26,0-.45.19-.45.45s.2.45.45.45.45-.19.45-.45-.2-.45-.45-.45ZM708.69,609.78c-.21,0-.37-.16-.37-.37s.15-.37.37-.37.37.16.37.37-.16.37-.37.37Z"/>
    <path class="cls-5" d="M710.13,609.47c0,.19-.11.31-.29.31s-.28-.12-.28-.31v-.5h-.09v.5c0,.23.15.39.37.39s.37-.15.37-.39v-.5h-.09v.5Z"/>
    <g>
      <path class="cls-5" d="M689.41,606.22c0-.17-.16-.35-.47-.53-.18-.11-.37-.19-.56-.25-.12-.03-.23-.09-.33-.16-.14-.09-.2-.18-.2-.28,0-.13.04-.24.13-.31.09-.08.22-.13.39-.13.16,0,.28.04.37.12.09.08.14.19.14.32h.54c0-.21-.1-.39-.3-.53-.2-.15-.46-.22-.75-.22s-.55.07-.75.22c-.2.14-.3.32-.3.53,0,.17.15.34.46.52.18.11.37.19.57.26.36.13.53.28.53.44,0,.13-.04.24-.13.31-.09.08-.22.12-.38.12s-.29-.03-.37-.1c-.09-.07-.14-.17-.14-.31h-.54c0,.21.1.38.3.52.2.14.45.21.75.21s.55-.07.75-.22c.2-.15.3-.32.3-.53Z"/>
      <path class="cls-5" d="M691.39,606.97c.33,0,.63-.09.89-.28.26-.18.43-.42.52-.71h-.58c-.07.2-.18.36-.32.48-.15.12-.32.18-.52.18-.22,0-.41-.09-.56-.26-.13-.15-.23-.36-.29-.63h2.27s.05-.09.05-.15c0-.38-.14-.7-.43-.97-.29-.27-.64-.4-1.04-.4s-.76.13-1.04.4c-.29.27-.43.59-.43.97s.14.7.43.97c.29.27.64.4,1.04.4ZM690.84,604.82c.14-.17.33-.26.56-.26s.43.09.6.26c.16.17.26.38.29.63h-1.7c.03-.26.12-.48.25-.63Z"/>
      <path class="cls-5" d="M698.29,606.97c.28,0,.53-.07.73-.21v.21h.79v-.3h-.25v-2.13h.25v-.3h-.79v1.36c0,.31-.06.56-.17.74-.13.2-.31.3-.56.3s-.43-.1-.56-.3c-.11-.18-.17-.43-.17-.74v-1.36h-.53v1.36c0,.39.11.71.33.97.23.27.54.4.94.4Z"/>
      <path class="cls-5" d="M701.08,605.6c0-.29.09-.53.26-.73.17-.2.39-.3.65-.3l.04-.33c-.36,0-.67.11-.94.32v-.31h-.74v.3h.25v2.12h-.25v.3h.74v-1.36Z"/>
      <path class="cls-5" d="M703.58,606.97c.33,0,.63-.09.89-.28.26-.18.43-.42.52-.71h-.58c-.16.44-.43.66-.83.66-.25,0-.46-.1-.62-.3-.16-.2-.23-.44-.23-.73s.08-.54.23-.74c.16-.2.37-.3.62-.3.4,0,.68.22.83.66h.58c-.09-.29-.26-.52-.52-.71-.26-.18-.56-.28-.89-.28-.41,0-.75.13-1.04.4-.29.27-.43.59-.43.96s.14.7.43.96c.29.27.64.4,1.04.4Z"/>
      <path class="cls-5" d="M706.29,605.6c0-.3.07-.54.21-.74.15-.2.35-.3.6-.3s.46.1.6.3c.14.19.22.44.22.74v1.37h.53v-1.37c0-.39-.12-.71-.37-.97-.25-.27-.58-.4-.98-.4-.31,0-.58.08-.81.25v-1.18h-.75v.3h.25v3.06h-.25v.3h.75v-1.37Z"/>
      <path class="cls-5" d="M709.44,603.82c.07,0,.14-.02.19-.07.05-.05.08-.1.08-.17s-.03-.13-.08-.17c-.05-.05-.12-.07-.19-.07s-.14.02-.19.07c-.05.05-.08.1-.08.17s.03.13.08.17c.05.05.11.07.19.07Z"/>
      <polygon class="cls-5" points="709.71 604.25 708.97 604.25 708.97 604.54 709.22 604.54 709.22 606.67 708.97 606.67 708.97 606.97 709.71 606.97 709.71 604.25"/>
      <path class="cls-5" d="M710.98,605.6c0-.3.07-.54.21-.74.15-.2.35-.3.6-.3s.45.1.6.3c.14.19.21.44.21.74v1.36h.53v-1.36c0-.39-.12-.71-.37-.97-.25-.27-.58-.4-.98-.4-.31,0-.58.08-.82.25v-.25h-.75v.3h.25v2.13h-.25v.3h.75v-1.36Z"/>
      <path class="cls-5" d="M695.78,606.65v.32h.75v-.3h-.25v-.31l.78.36-.78-.6v-1.57h.25v-.3h-.75v.32c-.06-.05-.13-.09-.2-.13l.55-.97-.77.88c-.16-.06-.33-.09-.51-.09l-.16-.83-.03.83c-.2.02-.39.08-.56.17l-1.35-1.31.98,1.59c-.25.26-.37.56-.37.9,0,.26.07.5.21.7l-.87.85.97-.73s.08.09.13.14c.28.26.63.4,1.03.4l.03.82.08-.82c.31-.02.6-.12.84-.31ZM694.8,606.08l.02.56c-.25,0-.47-.11-.65-.3-.05-.06-.1-.12-.13-.19l.63-.48-.2-.24-.52.51c-.03-.11-.05-.22-.05-.34,0-.29.09-.53.27-.73.14-.15.3-.24.48-.28v.21s.31-.02.31-.02l-.04-.2c.23.02.42.12.59.3.18.2.27.45.27.73s-.09.53-.27.74c-.15.17-.33.27-.54.29l.05-.55h-.22Z"/>
    </g>
  </g>
  <g>
    <path class="cls-5" d="M613.99,611.29c.15.23.23.5.23.81s-.08.6-.25.83c-.17.23-.4.34-.71.34-.35,0-.6-.12-.74-.35-.14-.23-.21-.51-.21-.81,0-.28.07-.54.21-.78s.39-.37.75-.37c.34,0,.59.11.73.34ZM613.69,612.1c0-.27-.04-.47-.12-.6s-.18-.2-.32-.2c-.14,0-.24.07-.32.21-.08.14-.11.33-.11.58,0,.26.04.46.12.6s.18.2.31.2.24-.07.32-.2.12-.33.12-.6Z"/>
    <polygon class="cls-5" points="613.52 597.95 611.51 600.42 610.59 601.65 610.59 606.17 611.51 607.4 613.52 609.87 611.32 609.87 609.5 607.4 607.67 609.87 605.48 609.87 607.49 607.4 608.4 606.17 608.4 601.65 607.49 600.42 605.48 597.95 607.67 597.95 609.5 600.42 611.32 597.95 613.52 597.95"/>
    <polygon class="cls-5" points="612.09 610.98 612.09 611.34 611.46 611.34 611.46 613.24 610.93 613.24 610.93 611.34 610.31 611.34 610.31 610.98 612.09 610.98"/>
    <path class="cls-5" d="M609.89,611.29c.15.23.23.5.23.81s-.08.6-.25.83-.4.34-.71.34c-.35,0-.6-.12-.75-.35-.14-.23-.21-.51-.21-.81,0-.28.07-.54.21-.78s.39-.37.75-.37c.34,0,.58.11.73.34ZM609.59,612.1c0-.27-.04-.47-.12-.6s-.18-.2-.31-.2c-.14,0-.25.07-.32.21-.08.14-.11.33-.11.58,0,.26.04.46.12.6s.18.2.31.2.23-.07.31-.2.12-.33.12-.6Z"/>
    <polygon class="cls-5" points="607.9 610.98 607.9 613.24 607.38 613.24 607.38 612.26 607.01 613.24 606.63 613.24 606.27 612.26 606.27 613.24 605.74 613.24 605.74 610.98 606.3 610.98 606.82 612.44 607.35 610.98 607.9 610.98"/>
    <path class="cls-5" d="M604.6,610.97l.93,2.27h-.56l-.17-.4h-.78l-.17.4h-.56l.93-2.27h.36ZM604.67,612.41l-.25-.67-.25.67h.49Z"/>
    <polygon class="cls-5" points="605.48 597.95 603.47 600.42 602.55 601.65 602.55 606.17 603.47 607.4 605.48 609.87 603.29 609.87 601.46 607.4 599.63 609.87 597.44 609.87 599.45 607.4 600.36 606.17 600.36 601.65 599.45 600.42 597.44 597.95 599.63 597.95 601.46 600.42 603.29 597.95 605.48 597.95"/>
    <polygon class="cls-5" points="603.11 610.98 603.11 613.24 602.59 613.24 602.59 612.26 602.22 613.24 601.85 613.24 601.48 612.26 601.48 613.24 600.95 613.24 600.95 610.98 601.51 610.98 602.03 612.44 602.56 610.98 603.11 610.98"/>
    <path class="cls-5" d="M599.82,610.97l.93,2.27h-.56l-.17-.4h-.78l-.17.4h-.55l.93-2.27h.36ZM599.88,612.41l-.25-.67-.25.67h.49Z"/>
    <polygon class="cls-5" points="598.46 610.98 597.78 612.28 597.78 613.24 597.25 613.24 597.25 612.28 596.56 610.98 597.11 610.98 597.51 611.8 597.92 610.98 598.46 610.98"/>
  </g>
</svg>
